<?xml version="1.0" encoding="UTF-8" standalone="no"?>
<!DOCTYPE svg PUBLIC "-//W3C//DTD SVG 1.1//EN" "http://www.w3.org/Graphics/SVG/1.1/DTD/svg11.dtd">
<svg width="100%" height="100%" viewBox="0 0 430 196" version="1.1" xmlns="http://www.w3.org/2000/svg" xmlns:xlink="http://www.w3.org/1999/xlink" xml:space="preserve" xmlns:serif="http://www.serif.com/" style="fill-rule:evenodd;clip-rule:evenodd;">
    <g id="text3967-5">
    </g>
    <g id="text3883">
    </g>
    <g id="text3883-1">
    </g>
    <g id="text3883-1-8">
    </g>
    <g id="text3883-6-4">
    </g>
    <g id="text3967-5-2">
    </g>
    <g id="text3967-5-0">
    </g>
    <g id="line16" transform="matrix(1,0,0,1,-150,-1)">
        <path d="M371,62.962L341,62.962" style="fill:none;fill-rule:nonzero;stroke:rgb(102,87,130);stroke-width:5px;"/>
    </g>
    <g id="line26" transform="matrix(1,0,0,1,-150,-1)">
        <path d="M461,62.962L431,62.962" style="fill:none;fill-rule:nonzero;stroke:rgb(102,87,130);stroke-width:5px;"/>
    </g>
    <g id="line28" transform="matrix(1,0,0,1,-150,-1)">
        <path d="M551,62.962L521,62.962" style="fill:none;fill-rule:nonzero;stroke:rgb(102,87,130);stroke-width:5px;"/>
    </g>
    <g id="line58" transform="matrix(1,0,0,1,-150,-1)">
        <path d="M191,62.962L161,62.962" style="fill:none;fill-rule:nonzero;stroke:rgb(102,87,130);stroke-width:5px;"/>
    </g>
    <g id="line60" transform="matrix(1,0,0,1,-150,-1)">
        <path d="M491,62.962L461,62.962" style="fill:none;fill-rule:nonzero;stroke:rgb(102,87,130);stroke-width:5px;"/>
    </g>
    <g id="line74" transform="matrix(1,0,0,1,-150,-1)">
        <path d="M221,62.962L191,62.962" style="fill:none;fill-rule:nonzero;stroke:rgb(102,87,130);stroke-width:5px;"/>
    </g>
    <g id="line76" transform="matrix(1,0,0,1,-150,-1)">
        <path d="M341,62.962L311,62.962" style="fill:none;fill-rule:nonzero;stroke:rgb(102,87,130);stroke-width:5px;"/>
    </g>
    <g id="line92" transform="matrix(1,0,0,1,-150,-1)">
        <path d="M251,62.962L221,62.962" style="fill:none;fill-rule:nonzero;stroke:rgb(102,87,130);stroke-width:5px;"/>
    </g>
    <g id="line96" transform="matrix(1,0,0,1,-150,-1)">
        <path d="M401,62.962L371,62.962" style="fill:none;fill-rule:nonzero;stroke:rgb(102,87,130);stroke-width:5px;"/>
    </g>
    <g id="line100" transform="matrix(1,0,0,1,-150,-1)">
        <path d="M311,62.962L281,62.962" style="fill:none;fill-rule:nonzero;stroke:rgb(102,87,130);stroke-width:5px;"/>
    </g>
    <g id="line112" transform="matrix(1,0,0,1,-150,-1)">
        <path d="M431,62.962L401,62.962" style="fill:none;fill-rule:nonzero;stroke:rgb(102,87,130);stroke-width:5px;"/>
    </g>
    <g id="line124" transform="matrix(1,0,0,1,-150,-1)">
        <path d="M521,62.962L491,62.962" style="fill:none;fill-rule:nonzero;stroke:rgb(102,87,130);stroke-width:5px;"/>
    </g>
    <g id="line132" transform="matrix(1,0,0,1,-150,-1)">
        <path d="M281,62.962L251,62.962" style="fill:none;fill-rule:nonzero;stroke:rgb(102,87,130);stroke-width:5px;"/>
    </g>
    <g id="line676" transform="matrix(1,0,0,1,-150,-1)">
        <path d="M536,88.942L566,88.942" style="fill:none;fill-rule:nonzero;stroke:rgb(102,87,130);stroke-width:7px;"/>
    </g>
    <g id="line680" transform="matrix(1,0,0,1,-150,-1)">
        <path d="M521,114.923L536,88.942" style="fill:none;fill-rule:nonzero;stroke:rgb(102,87,130);stroke-width:7px;"/>
    </g>
    <g id="line684" transform="matrix(1,0,0,1,-150,-1)">
        <path d="M536,140.904L521,114.923" style="fill:none;fill-rule:nonzero;stroke:rgb(102,87,130);stroke-width:7px;"/>
    </g>
    <g id="line690" transform="matrix(1,0,0,1,-150,-1)">
        <path d="M506,140.904L536,140.904" style="fill:none;fill-rule:nonzero;stroke:rgb(102,87,130);stroke-width:7px;"/>
    </g>
    <g id="line694" transform="matrix(1,0,0,1,-150,-1)">
        <path d="M491,114.923L506,140.904" style="fill:none;fill-rule:nonzero;stroke:rgb(102,87,130);stroke-width:7px;"/>
    </g>
    <g id="line698" transform="matrix(1,0,0,1,-150,-1)">
        <path d="M506,88.942L491,114.923" style="fill:none;fill-rule:nonzero;stroke:rgb(102,87,130);stroke-width:7px;"/>
    </g>
    <g id="line706" transform="matrix(1,0,0,1,-150,-1)">
        <path d="M476,88.942L506,88.942" style="fill:none;fill-rule:nonzero;stroke:rgb(79,201,79);stroke-width:7px;"/>
    </g>
    <g id="line708" transform="matrix(1,0,0,1,-150,-1)">
        <path d="M461,114.923L476,88.942" style="fill:none;fill-rule:nonzero;stroke:rgb(79,201,79);stroke-width:7px;"/>
    </g>
    <g id="line710" transform="matrix(1,0,0,1,-150,-1)">
        <path d="M476,140.904L461,114.923" style="fill:none;fill-rule:nonzero;stroke:rgb(79,201,79);stroke-width:7px;"/>
    </g>
    <g id="line712" transform="matrix(1,0,0,1,-150,-1)">
        <path d="M476,140.904L491,114.923" style="fill:none;fill-rule:nonzero;stroke:rgb(144,209,194);stroke-width:1.5px;stroke-dasharray:1,1;"/>
    </g>
    <g id="line714" transform="matrix(1,0,0,1,-150,-1)">
        <path d="M476,140.904L506,140.904" style="fill:none;fill-rule:nonzero;stroke:rgb(144,209,194);stroke-width:1.5px;stroke-dasharray:1,1;"/>
    </g>
    <g id="line716" transform="matrix(1,0,0,1,-150,-1)">
        <path d="M446,140.904L476,140.904" style="fill:none;fill-rule:nonzero;stroke:rgb(79,201,79);stroke-width:7px;"/>
    </g>
    <g id="line718" transform="matrix(1,0,0,1,-150,-1)">
        <path d="M431,114.923L446,140.904" style="fill:none;fill-rule:nonzero;stroke:rgb(79,201,79);stroke-width:7px;"/>
    </g>
    <g id="line720" transform="matrix(1,0,0,1,-150,-1)">
        <path d="M446,88.942L431,114.923" style="fill:none;fill-rule:nonzero;stroke:rgb(79,201,79);stroke-width:7px;"/>
    </g>
    <g id="line722" transform="matrix(1,0,0,1,-150,-1)">
        <path d="M446,88.942L476,88.942" style="fill:none;fill-rule:nonzero;stroke:rgb(144,209,194);stroke-width:1.5px;stroke-dasharray:1,1;"/>
    </g>
    <g id="line724" transform="matrix(1,0,0,1,-150,-1)">
        <path d="M416,88.942L446,88.942" style="fill:none;fill-rule:nonzero;stroke:rgb(79,201,79);stroke-width:7px;"/>
    </g>
    <g id="line726" transform="matrix(1,0,0,1,-150,-1)">
        <path d="M416,88.942L431,62.962" style="fill:none;fill-rule:nonzero;stroke:rgb(144,209,194);stroke-width:1.5px;stroke-dasharray:1,1;"/>
    </g>
    <g id="line728" transform="matrix(1,0,0,1,-150,-1)">
        <path d="M401,114.923L416,88.942" style="fill:none;fill-rule:nonzero;stroke:rgb(79,201,79);stroke-width:7px;"/>
    </g>
    <g id="line730" transform="matrix(1,0,0,1,-150,-1)">
        <path d="M401,114.923L431,114.923" style="fill:none;fill-rule:nonzero;stroke:rgb(144,209,194);stroke-width:1.5px;stroke-dasharray:1,1;"/>
    </g>
    <g id="line732" transform="matrix(1,0,0,1,-150,-1)">
        <path d="M416,140.904L401,114.923" style="fill:none;fill-rule:nonzero;stroke:rgb(79,201,79);stroke-width:7px;"/>
    </g>
    <g id="line734" transform="matrix(1,0,0,1,-150,-1)">
        <path d="M416,140.904L431,114.923" style="fill:none;fill-rule:nonzero;stroke:rgb(144,209,194);stroke-width:1.5px;stroke-dasharray:1,1;"/>
    </g>
    <g id="line736" transform="matrix(1,0,0,1,-150,-1)">
        <path d="M416,140.904L446,140.904" style="fill:none;fill-rule:nonzero;stroke:rgb(144,209,194);stroke-width:1.5px;stroke-dasharray:1,1;"/>
    </g>
    <g id="line738" transform="matrix(1,0,0,1,-150,-1)">
        <path d="M386,140.904L416,140.904" style="fill:none;fill-rule:nonzero;stroke:rgb(79,201,79);stroke-width:7px;"/>
    </g>
    <g id="line740" transform="matrix(1,0,0,1,-150,-1)">
        <path d="M371,114.923L386,140.904" style="fill:none;fill-rule:nonzero;stroke:rgb(79,201,79);stroke-width:7px;"/>
    </g>
    <g id="line742" transform="matrix(1,0,0,1,-150,-1)">
        <path d="M371,114.923L401,114.923" style="fill:none;fill-rule:nonzero;stroke:rgb(144,209,194);stroke-width:1.5px;stroke-dasharray:1,1;"/>
    </g>
    <g id="line744" transform="matrix(1,0,0,1,-150,-1)">
        <path d="M386,88.942L371,114.923" style="fill:none;fill-rule:nonzero;stroke:rgb(79,201,79);stroke-width:7px;"/>
    </g>
    <g id="line746" transform="matrix(1,0,0,1,-150,-1)">
        <path d="M386,88.942L401,62.962" style="fill:none;fill-rule:nonzero;stroke:rgb(144,209,194);stroke-width:1.5px;stroke-dasharray:1,1;"/>
    </g>
    <g id="line748" transform="matrix(1,0,0,1,-150,-1)">
        <path d="M386,88.942L416,88.942" style="fill:none;fill-rule:nonzero;stroke:rgb(144,209,194);stroke-width:1.5px;stroke-dasharray:1,1;"/>
    </g>
    <g id="line750" transform="matrix(1,0,0,1,-150,-1)">
        <path d="M386,88.942L401,114.923" style="fill:none;fill-rule:nonzero;stroke:rgb(144,209,194);stroke-width:1.5px;stroke-dasharray:1,1;"/>
    </g>
    <g id="line752" transform="matrix(1,0,0,1,-150,-1)">
        <path d="M356,88.942L386,88.942" style="fill:none;fill-rule:nonzero;stroke:rgb(79,201,79);stroke-width:7px;"/>
    </g>
    <g id="line754" transform="matrix(1,0,0,1,-150,-1)">
        <path d="M341,114.923L356,88.942" style="fill:none;fill-rule:nonzero;stroke:rgb(79,201,79);stroke-width:7px;"/>
    </g>
    <g id="line756" transform="matrix(1,0,0,1,-150,-1)">
        <path d="M341,114.923L371,114.923" style="fill:none;fill-rule:nonzero;stroke:rgb(144,209,194);stroke-width:1.5px;stroke-dasharray:1,1;"/>
    </g>
    <g id="line758" transform="matrix(1,0,0,1,-150,-1)">
        <path d="M356,140.904L341,114.923" style="fill:none;fill-rule:nonzero;stroke:rgb(79,201,79);stroke-width:7px;"/>
    </g>
    <g id="line760" transform="matrix(1,0,0,1,-150,-1)">
        <path d="M356,140.904L371,114.923" style="fill:none;fill-rule:nonzero;stroke:rgb(144,209,194);stroke-width:1.5px;stroke-dasharray:1,1;"/>
    </g>
    <g id="line762" transform="matrix(1,0,0,1,-150,-1)">
        <path d="M356,140.904L386,140.904" style="fill:none;fill-rule:nonzero;stroke:rgb(144,209,194);stroke-width:1.5px;stroke-dasharray:1,1;"/>
    </g>
    <g id="line764" transform="matrix(1,0,0,1,-150,-1)">
        <path d="M326,140.904L356,140.904" style="fill:none;fill-rule:nonzero;stroke:rgb(79,201,79);stroke-width:7px;"/>
    </g>
    <g id="line766" transform="matrix(1,0,0,1,-150,-1)">
        <path d="M311,114.923L326,140.904" style="fill:none;fill-rule:nonzero;stroke:rgb(79,201,79);stroke-width:7px;"/>
    </g>
    <g id="line768" transform="matrix(1,0,0,1,-150,-1)">
        <path d="M326,88.942L311,114.923" style="fill:none;fill-rule:nonzero;stroke:rgb(79,201,79);stroke-width:7px;"/>
    </g>
    <g id="line770" transform="matrix(1,0,0,1,-150,-1)">
        <path d="M326,88.942L356,88.942" style="fill:none;fill-rule:nonzero;stroke:rgb(144,209,194);stroke-width:1.5px;stroke-dasharray:1,1;"/>
    </g>
    <g id="line772" transform="matrix(1,0,0,1,-150,-1)">
        <path d="M326,88.942L341,114.923" style="fill:none;fill-rule:nonzero;stroke:rgb(144,209,194);stroke-width:1.5px;stroke-dasharray:1,1;"/>
    </g>
    <g id="line774" transform="matrix(1,0,0,1,-150,-1)">
        <path d="M296,88.942L326,88.942" style="fill:none;fill-rule:nonzero;stroke:rgb(79,201,79);stroke-width:7px;"/>
    </g>
    <g id="line776" transform="matrix(1,0,0,1,-150,-1)">
        <path d="M281,114.923L296,88.942" style="fill:none;fill-rule:nonzero;stroke:rgb(79,201,79);stroke-width:7px;"/>
    </g>
    <g id="line778" transform="matrix(1,0,0,1,-150,-1)">
        <path d="M281,114.923L311,114.923" style="fill:none;fill-rule:nonzero;stroke:rgb(144,209,194);stroke-width:1.5px;stroke-dasharray:1,1;"/>
    </g>
    <g id="line780" transform="matrix(1,0,0,1,-150,-1)">
        <path d="M296,140.904L281,114.923" style="fill:none;fill-rule:nonzero;stroke:rgb(79,201,79);stroke-width:7px;"/>
    </g>
    <g id="line782" transform="matrix(1,0,0,1,-150,-1)">
        <path d="M296,140.904L311,114.923" style="fill:none;fill-rule:nonzero;stroke:rgb(144,209,194);stroke-width:1.5px;stroke-dasharray:1,1;"/>
    </g>
    <g id="line784" transform="matrix(1,0,0,1,-150,-1)">
        <path d="M296,140.904L326,140.904" style="fill:none;fill-rule:nonzero;stroke:rgb(144,209,194);stroke-width:1.5px;stroke-dasharray:1,1;"/>
    </g>
    <g id="line786" transform="matrix(1,0,0,1,-150,-1)">
        <path d="M266,140.904L296,140.904" style="fill:none;fill-rule:nonzero;stroke:rgb(79,201,79);stroke-width:7px;"/>
    </g>
    <g id="line788" transform="matrix(1,0,0,1,-150,-1)">
        <path d="M251,114.923L266,140.904" style="fill:none;fill-rule:nonzero;stroke:rgb(79,201,79);stroke-width:7px;"/>
    </g>
    <g id="line790" transform="matrix(1,0,0,1,-150,-1)">
        <path d="M251,114.923L281,114.923" style="fill:none;fill-rule:nonzero;stroke:rgb(144,209,194);stroke-width:1.5px;stroke-dasharray:1,1;"/>
    </g>
    <g id="line792" transform="matrix(1,0,0,1,-150,-1)">
        <path d="M266,88.942L251,114.923" style="fill:none;fill-rule:nonzero;stroke:rgb(79,201,79);stroke-width:7px;"/>
    </g>
    <g id="line794" transform="matrix(1,0,0,1,-150,-1)">
        <path d="M266,88.942L296,88.942" style="fill:none;fill-rule:nonzero;stroke:rgb(144,209,194);stroke-width:1.5px;stroke-dasharray:1,1;"/>
    </g>
    <g id="line796" transform="matrix(1,0,0,1,-150,-1)">
        <path d="M266,88.942L281,114.923" style="fill:none;fill-rule:nonzero;stroke:rgb(144,209,194);stroke-width:1.5px;stroke-dasharray:1,1;"/>
    </g>
    <g id="line798" transform="matrix(1,0,0,1,-150,-1)">
        <path d="M236,88.942L266,88.942" style="fill:none;fill-rule:nonzero;stroke:rgb(79,201,79);stroke-width:7px;"/>
    </g>
    <g id="line800" transform="matrix(1,0,0,1,-150,-1)">
        <path d="M206,88.942L236,88.942" style="fill:none;fill-rule:nonzero;stroke:rgb(79,201,79);stroke-width:7px;"/>
    </g>
    <g id="line802" transform="matrix(1,0,0,1,-150,-1)">
        <path d="M206,88.942L221,62.962" style="fill:none;fill-rule:nonzero;stroke:rgb(144,209,194);stroke-width:1.5px;stroke-dasharray:1,1;"/>
    </g>
    <g id="line804" transform="matrix(1,0,0,1,-150,-1)">
        <path d="M206,88.942L191,62.962" style="fill:none;fill-rule:nonzero;stroke:rgb(144,209,194);stroke-width:1.5px;stroke-dasharray:1,1;"/>
    </g>
    <g id="line806" transform="matrix(1,0,0,1,-150,-1)">
        <path d="M221,114.923L206,88.942" style="fill:none;fill-rule:nonzero;stroke:rgb(79,201,79);stroke-width:7px;"/>
    </g>
    <g id="line808" transform="matrix(1,0,0,1,-150,-1)">
        <path d="M221,114.923L251,114.923" style="fill:none;fill-rule:nonzero;stroke:rgb(144,209,194);stroke-width:1.5px;stroke-dasharray:1,1;"/>
    </g>
    <g id="line810" transform="matrix(1,0,0,1,-150,-1)">
        <path d="M236,140.904L221,114.923" style="fill:none;fill-rule:nonzero;stroke:rgb(79,201,79);stroke-width:7px;"/>
    </g>
    <g id="line812" transform="matrix(1,0,0,1,-150,-1)">
        <path d="M236,140.904L251,114.923" style="fill:none;fill-rule:nonzero;stroke:rgb(144,209,194);stroke-width:1.5px;stroke-dasharray:1,1;"/>
    </g>
    <g id="line814" transform="matrix(1,0,0,1,-150,-1)">
        <path d="M236,140.904L266,140.904" style="fill:none;fill-rule:nonzero;stroke:rgb(144,209,194);stroke-width:1.5px;stroke-dasharray:1,1;"/>
    </g>
    <g id="line816" transform="matrix(1,0,0,1,-150,-1)">
        <path d="M206,140.904L236,140.904" style="fill:none;fill-rule:nonzero;stroke:rgb(79,201,79);stroke-width:7px;"/>
    </g>
    <g id="line818" transform="matrix(1,0,0,1,-150,-1)">
        <path d="M191,114.923L206,140.904" style="fill:none;fill-rule:nonzero;stroke:rgb(79,201,79);stroke-width:7px;"/>
    </g>
    <g id="line820" transform="matrix(1,0,0,1,-150,-1)">
        <path d="M191,114.923L206,88.942" style="fill:none;fill-rule:nonzero;stroke:rgb(144,209,194);stroke-width:1.5px;stroke-dasharray:1,1;"/>
    </g>
    <g id="circle2644" transform="matrix(1,0,0,1,-150,-1)">
        <circle cx="491" cy="114.923" r="10" style="fill:white;stroke:rgb(102,87,130);stroke-width:3px;"/>
    </g>
    <g id="text2646" transform="matrix(1,0,0,1,341,117.423)">
        <text x="-6.674px" y="0px" style="font-family:'ArialMT', 'Arial', sans-serif;font-size:8px;">131</text>
    </g>
    <g id="circle2684" transform="matrix(1,0,0,1,-150,-1)">
        <circle cx="521" cy="62.962" r="10" style="fill:white;stroke:rgb(102,87,130);stroke-width:2px;"/>
    </g>
    <g id="text2686" transform="matrix(1,0,0,1,371,65.462)">
        <text x="-4.449px" y="0px" style="font-family:'ArialMT', 'Arial', sans-serif;font-size:8px;">96</text>
    </g>
    <g id="circle2688" transform="matrix(1,0,0,1,-150,-1)">
        <circle cx="521" cy="114.923" r="10" style="fill:white;stroke:rgb(102,87,130);stroke-width:3px;"/>
    </g>
    <g id="text2690" transform="matrix(1,0,0,1,371,117.423)">
        <text x="-6.674px" y="0px" style="font-family:'ArialMT', 'Arial', sans-serif;font-size:8px;">128</text>
    </g>
    <g id="circle2736" transform="matrix(1,0,0,1,-150,-1)">
        <circle cx="251" cy="62.962" r="10" style="fill:white;stroke:rgb(102,87,130);stroke-width:2px;"/>
    </g>
    <g id="text2738" transform="matrix(1,0,0,1,101,65.462)">
        <text x="-4.449px" y="0px" style="font-family:'ArialMT', 'Arial', sans-serif;font-size:8px;">67</text>
    </g>
    <g id="circle2740" transform="matrix(1,0,0,1,-150,-1)">
        <circle cx="431" cy="62.962" r="10" style="fill:white;stroke:rgb(102,87,130);stroke-width:2px;"/>
    </g>
    <g id="text2742" transform="matrix(1,0,0,1,281,65.462)">
        <text x="-4.449px" y="0px" style="font-family:'ArialMT', 'Arial', sans-serif;font-size:8px;">89</text>
    </g>
    <g id="circle2744" transform="matrix(1,0,0,1,-150,-1)">
        <circle cx="476" cy="88.942" r="10" style="fill:white;stroke:rgb(79,201,79);stroke-width:3px;"/>
    </g>
    <g id="text2746" transform="matrix(1,0,0,1,326,91.442)">
        <text x="-2.225px" y="0px" style="font-family:'ArialMT', 'Arial', sans-serif;font-size:8px;">1</text>
    </g>
    <g id="circle2780" transform="matrix(1,0,0,1,-150,-1)">
        <circle cx="356" cy="140.904" r="10" style="fill:white;stroke:rgb(79,201,79);stroke-width:3px;"/>
    </g>
    <g id="text2782" transform="matrix(1,0,0,1,206,143.404)">
        <text x="-4.449px" y="0px" style="font-family:'ArialMT', 'Arial', sans-serif;font-size:8px;">15</text>
    </g>
    <g id="circle2796" transform="matrix(1,0,0,1,-150,-1)">
        <circle cx="266" cy="88.942" r="10" style="fill:white;stroke:rgb(79,201,79);stroke-width:3px;"/>
    </g>
    <g id="text2798" transform="matrix(1,0,0,1,116,91.442)">
        <text x="-4.449px" y="0px" style="font-family:'ArialMT', 'Arial', sans-serif;font-size:8px;">24</text>
    </g>
    <g id="circle2800" transform="matrix(1,0,0,1,-150,-1)">
        <circle cx="191" cy="114.923" r="10" style="fill:white;stroke:rgb(79,201,79);stroke-width:3px;"/>
    </g>
    <g id="text2802" transform="matrix(1,0,0,1,41,117.423)">
        <text x="-4.449px" y="0px" style="font-family:'ArialMT', 'Arial', sans-serif;font-size:8px;">30</text>
    </g>
    <g id="circle2844" transform="matrix(1,0,0,1,-150,-1)">
        <circle cx="476" cy="140.904" r="10" style="fill:white;stroke:rgb(79,201,79);stroke-width:3px;"/>
    </g>
    <g id="text2846" transform="matrix(1,0,0,1,326,143.404)">
        <text x="-2.225px" y="0px" style="font-family:'ArialMT', 'Arial', sans-serif;font-size:8px;">3</text>
    </g>
    <g id="circle2864" transform="matrix(1,0,0,1,-150,-1)">
        <circle cx="446" cy="140.904" r="10" style="fill:white;stroke:rgb(79,201,79);stroke-width:3px;"/>
    </g>
    <g id="text2866" transform="matrix(1,0,0,1,296,143.404)">
        <text x="-2.225px" y="0px" style="font-family:'ArialMT', 'Arial', sans-serif;font-size:8px;">4</text>
    </g>
    <g id="circle2880" transform="matrix(1,0,0,1,-150,-1)">
        <circle cx="296" cy="88.942" r="10" style="fill:white;stroke:rgb(79,201,79);stroke-width:3px;"/>
    </g>
    <g id="text2882" transform="matrix(1,0,0,1,146,91.442)">
        <text x="-4.449px" y="0px" style="font-family:'ArialMT', 'Arial', sans-serif;font-size:8px;">19</text>
    </g>
    <g id="circle2908" transform="matrix(1,0,0,1,-150,-1)">
        <circle cx="236" cy="140.904" r="10" style="fill:white;stroke:rgb(79,201,79);stroke-width:3px;"/>
    </g>
    <g id="text2910" transform="matrix(1,0,0,1,86,143.404)">
        <text x="-4.449px" y="0px" style="font-family:'ArialMT', 'Arial', sans-serif;font-size:8px;">28</text>
    </g>
    <g id="circle2984" transform="matrix(1,0,0,1,-150,-1)">
        <circle cx="386" cy="88.942" r="10" style="fill:white;stroke:rgb(79,201,79);stroke-width:3px;"/>
    </g>
    <g id="text2986" transform="matrix(1,0,0,1,236,91.442)">
        <text x="-4.449px" y="0px" style="font-family:'ArialMT', 'Arial', sans-serif;font-size:8px;">12</text>
    </g>
    <g id="circle3020" transform="matrix(1,0,0,1,-150,-1)">
        <circle cx="206" cy="88.942" r="10" style="fill:white;stroke:rgb(79,201,79);stroke-width:3px;"/>
    </g>
    <g id="text3022" transform="matrix(1,0,0,1,56,91.442)">
        <text x="-4.449px" y="0px" style="font-family:'ArialMT', 'Arial', sans-serif;font-size:8px;">26</text>
    </g>
    <g id="circle3044" transform="matrix(1,0,0,1,-150,-1)">
        <circle cx="281" cy="62.962" r="10" style="fill:white;stroke:rgb(102,87,130);stroke-width:2px;"/>
    </g>
    <g id="text3046" transform="matrix(1,0,0,1,131,65.462)">
        <text x="-4.449px" y="0px" style="font-family:'ArialMT', 'Arial', sans-serif;font-size:8px;">76</text>
    </g>
    <g id="circle3088" transform="matrix(1,0,0,1,-150,-1)">
        <circle cx="506" cy="88.942" r="10" style="fill:white;stroke:rgb(102,87,130);stroke-width:3px;"/>
    </g>
    <g id="text3090" transform="matrix(1,0,0,1,356,91.442)">
        <text x="-6.674px" y="0px" style="font-family:'ArialMT', 'Arial', sans-serif;font-size:8px;">132</text>
    </g>
    <g id="circle3092" transform="matrix(1,0,0,1,-150,-1)">
        <circle cx="311" cy="114.923" r="10" style="fill:white;stroke:rgb(79,201,79);stroke-width:3px;"/>
    </g>
    <g id="text3094" transform="matrix(1,0,0,1,161,117.423)">
        <text x="-4.449px" y="0px" style="font-family:'ArialMT', 'Arial', sans-serif;font-size:8px;">17</text>
    </g>
    <g id="circle3112" transform="matrix(1,0,0,1,-150,-1)">
        <circle cx="461" cy="114.923" r="10" style="fill:white;stroke:rgb(79,201,79);stroke-width:3px;"/>
    </g>
    <g id="text3114" transform="matrix(1,0,0,1,311,117.423)">
        <text x="-2.225px" y="0px" style="font-family:'ArialMT', 'Arial', sans-serif;font-size:8px;">2</text>
    </g>
    <g id="circle3228" transform="matrix(1,0,0,1,-150,-1)">
        <circle cx="491" cy="62.962" r="10" style="fill:white;stroke:rgb(102,87,130);stroke-width:2px;"/>
    </g>
    <g id="text3230" transform="matrix(1,0,0,1,341,65.462)">
        <text x="-4.449px" y="0px" style="font-family:'ArialMT', 'Arial', sans-serif;font-size:8px;">91</text>
    </g>
    <g id="circle3340" transform="matrix(1,0,0,1,-150,-1)">
        <circle cx="416" cy="88.942" r="10" style="fill:white;stroke:rgb(79,201,79);stroke-width:3px;"/>
    </g>
    <g id="text3342" transform="matrix(1,0,0,1,266,91.442)">
        <text x="-2.225px" y="0px" style="font-family:'ArialMT', 'Arial', sans-serif;font-size:8px;">7</text>
    </g>
    <g id="circle3428" transform="matrix(1,0,0,1,-150,-1)">
        <circle cx="461" cy="62.962" r="10" style="fill:white;stroke:rgb(102,87,130);stroke-width:2px;"/>
    </g>
    <g id="text3430" transform="matrix(1,0,0,1,311,65.462)">
        <text x="-4.449px" y="0px" style="font-family:'ArialMT', 'Arial', sans-serif;font-size:8px;">90</text>
    </g>
    <g id="circle3432" transform="matrix(1,0,0,1,-150,-1)">
        <circle cx="326" cy="140.904" r="10" style="fill:white;stroke:rgb(79,201,79);stroke-width:3px;"/>
    </g>
    <g id="text3434" transform="matrix(1,0,0,1,176,143.404)">
        <text x="-4.449px" y="0px" style="font-family:'ArialMT', 'Arial', sans-serif;font-size:8px;">16</text>
    </g>
    <g id="circle3472" transform="matrix(1,0,0,1,-150,-1)">
        <circle cx="341" cy="62.962" r="10" style="fill:white;stroke:rgb(102,87,130);stroke-width:2px;"/>
    </g>
    <g id="text3474" transform="matrix(1,0,0,1,191,65.462)">
        <text x="-4.449px" y="0px" style="font-family:'ArialMT', 'Arial', sans-serif;font-size:8px;">78</text>
    </g>
    <g id="circle3620" transform="matrix(1,0,0,1,-150,-1)">
        <circle cx="401" cy="62.962" r="10" style="fill:white;stroke:rgb(102,87,130);stroke-width:2px;"/>
    </g>
    <g id="text3622" transform="matrix(1,0,0,1,251,65.462)">
        <text x="-4.449px" y="0px" style="font-family:'ArialMT', 'Arial', sans-serif;font-size:8px;">88</text>
    </g>
    <g id="circle3624" transform="matrix(1,0,0,1,-150,-1)">
        <circle cx="356" cy="88.942" r="10" style="fill:white;stroke:rgb(79,201,79);stroke-width:3px;"/>
    </g>
    <g id="text3626" transform="matrix(1,0,0,1,206,91.442)">
        <text x="-4.449px" y="0px" style="font-family:'ArialMT', 'Arial', sans-serif;font-size:8px;">13</text>
    </g>
    <g id="circle3684" transform="matrix(1,0,0,1,-150,-1)">
        <circle cx="251" cy="114.923" r="10" style="fill:white;stroke:rgb(79,201,79);stroke-width:3px;"/>
    </g>
    <g id="text3686" transform="matrix(1,0,0,1,101,117.423)">
        <text x="-4.449px" y="0px" style="font-family:'ArialMT', 'Arial', sans-serif;font-size:8px;">23</text>
    </g>
    <g id="circle3756" transform="matrix(1,0,0,1,-150,-1)">
        <circle cx="221" cy="62.962" r="10" style="fill:white;stroke:rgb(102,87,130);stroke-width:2px;"/>
    </g>
    <g id="text3758" transform="matrix(1,0,0,1,71,65.462)">
        <text x="-4.449px" y="0px" style="font-family:'ArialMT', 'Arial', sans-serif;font-size:8px;">66</text>
    </g>
    <g id="circle3960" transform="matrix(1,0,0,1,-150,-1)">
        <circle cx="431" cy="114.923" r="10" style="fill:white;stroke:rgb(79,201,79);stroke-width:3px;"/>
    </g>
    <g id="text3962" transform="matrix(1,0,0,1,281,117.423)">
        <text x="-2.225px" y="0px" style="font-family:'ArialMT', 'Arial', sans-serif;font-size:8px;">5</text>
    </g>
    <g id="circle4036" transform="matrix(1,0,0,1,-150,-1)">
        <circle cx="221" cy="114.923" r="10" style="fill:white;stroke:rgb(79,201,79);stroke-width:3px;"/>
    </g>
    <g id="text4038" transform="matrix(1,0,0,1,71,117.423)">
        <text x="-4.449px" y="0px" style="font-family:'ArialMT', 'Arial', sans-serif;font-size:8px;">27</text>
    </g>
    <g id="circle4052" transform="matrix(1,0,0,1,-150,-1)">
        <circle cx="236" cy="88.942" r="10" style="fill:white;stroke:rgb(79,201,79);stroke-width:3px;"/>
    </g>
    <g id="text4054" transform="matrix(1,0,0,1,86,91.442)">
        <text x="-4.449px" y="0px" style="font-family:'ArialMT', 'Arial', sans-serif;font-size:8px;">25</text>
    </g>
    <g id="circle4164" transform="matrix(1,0,0,1,-150,-1)">
        <circle cx="536" cy="140.904" r="10" style="fill:white;stroke:rgb(102,87,130);stroke-width:3px;"/>
    </g>
    <g id="text4166" transform="matrix(1,0,0,1,386,143.404)">
        <text x="-6.674px" y="0px" style="font-family:'ArialMT', 'Arial', sans-serif;font-size:8px;">129</text>
    </g>
    <g id="circle4228" transform="matrix(1,0,0,1,-150,-1)">
        <circle cx="326" cy="88.942" r="10" style="fill:white;stroke:rgb(79,201,79);stroke-width:3px;"/>
    </g>
    <g id="text4230" transform="matrix(1,0,0,1,176,91.442)">
        <text x="-4.449px" y="0px" style="font-family:'ArialMT', 'Arial', sans-serif;font-size:8px;">18</text>
    </g>
    <g id="circle4272" transform="matrix(1,0,0,1,-150,-1)">
        <circle cx="311" cy="62.962" r="10" style="fill:white;stroke:rgb(102,87,130);stroke-width:2px;"/>
    </g>
    <g id="text4274" transform="matrix(1,0,0,1,161,65.462)">
        <text x="-4.449px" y="0px" style="font-family:'ArialMT', 'Arial', sans-serif;font-size:8px;">77</text>
    </g>
    <g id="circle4300" transform="matrix(1,0,0,1,-150,-1)">
        <circle cx="371" cy="62.962" r="10" style="fill:white;stroke:rgb(102,87,130);stroke-width:2px;"/>
    </g>
    <g id="text4302" transform="matrix(1,0,0,1,221,65.462)">
        <text x="-4.449px" y="0px" style="font-family:'ArialMT', 'Arial', sans-serif;font-size:8px;">79</text>
    </g>
    <g id="circle4308" transform="matrix(1,0,0,1,-150,-1)">
        <circle cx="446" cy="88.942" r="10" style="fill:white;stroke:rgb(79,201,79);stroke-width:3px;"/>
    </g>
    <g id="text4310" transform="matrix(1,0,0,1,296,91.442)">
        <text x="-2.225px" y="0px" style="font-family:'ArialMT', 'Arial', sans-serif;font-size:8px;">6</text>
    </g>
    <g id="circle4352" transform="matrix(1,0,0,1,-150,-1)">
        <circle cx="536" cy="88.942" r="10" style="fill:white;stroke:rgb(102,87,130);stroke-width:3px;"/>
    </g>
    <g id="text4354" transform="matrix(1,0,0,1,386,91.442)">
        <text x="-6.674px" y="0px" style="font-family:'ArialMT', 'Arial', sans-serif;font-size:8px;">127</text>
    </g>
    <g id="circle4404" transform="matrix(1,0,0,1,-150,-1)">
        <circle cx="296" cy="140.904" r="10" style="fill:white;stroke:rgb(79,201,79);stroke-width:3px;"/>
    </g>
    <g id="text4406" transform="matrix(1,0,0,1,146,143.404)">
        <text x="-4.449px" y="0px" style="font-family:'ArialMT', 'Arial', sans-serif;font-size:8px;">21</text>
    </g>
    <g id="circle4440" transform="matrix(1,0,0,1,-150,-1)">
        <circle cx="386" cy="140.904" r="10" style="fill:white;stroke:rgb(79,201,79);stroke-width:3px;"/>
    </g>
    <g id="text4442" transform="matrix(1,0,0,1,236,143.404)">
        <text x="-4.449px" y="0px" style="font-family:'ArialMT', 'Arial', sans-serif;font-size:8px;">10</text>
    </g>
    <g id="circle4444" transform="matrix(1,0,0,1,-150,-1)">
        <circle cx="281" cy="114.923" r="10" style="fill:white;stroke:rgb(79,201,79);stroke-width:3px;"/>
    </g>
    <g id="text4446" transform="matrix(1,0,0,1,131,117.423)">
        <text x="-4.449px" y="0px" style="font-family:'ArialMT', 'Arial', sans-serif;font-size:8px;">20</text>
    </g>
    <g id="circle4472" transform="matrix(1,0,0,1,-150,-1)">
        <circle cx="266" cy="140.904" r="10" style="fill:white;stroke:rgb(79,201,79);stroke-width:3px;"/>
    </g>
    <g id="text4474" transform="matrix(1,0,0,1,116,143.404)">
        <text x="-4.449px" y="0px" style="font-family:'ArialMT', 'Arial', sans-serif;font-size:8px;">22</text>
    </g>
    <g id="circle4512" transform="matrix(1,0,0,1,-150,-1)">
        <circle cx="401" cy="114.923" r="10" style="fill:white;stroke:rgb(79,201,79);stroke-width:3px;"/>
    </g>
    <g id="text4514" transform="matrix(1,0,0,1,251,117.423)">
        <text x="-2.225px" y="0px" style="font-family:'ArialMT', 'Arial', sans-serif;font-size:8px;">8</text>
    </g>
    <g id="circle4656" transform="matrix(1,0,0,1,-150,-1)">
        <circle cx="416" cy="140.904" r="10" style="fill:white;stroke:rgb(79,201,79);stroke-width:3px;"/>
    </g>
    <g id="text4658" transform="matrix(1,0,0,1,266,143.404)">
        <text x="-2.225px" y="0px" style="font-family:'ArialMT', 'Arial', sans-serif;font-size:8px;">9</text>
    </g>
    <g id="circle4696" transform="matrix(1,0,0,1,-150,-1)">
        <circle cx="371" cy="114.923" r="10" style="fill:white;stroke:rgb(79,201,79);stroke-width:3px;"/>
    </g>
    <g id="text4698" transform="matrix(1,0,0,1,221,117.423)">
        <text x="-4.152px" y="0px" style="font-family:'ArialMT', 'Arial', sans-serif;font-size:8px;">1<tspan x="-0.297px " y="0px ">1</tspan></text>
    </g>
    <g id="circle4708" transform="matrix(1,0,0,1,-150,-1)">
        <circle cx="191" cy="62.962" r="10" style="fill:white;stroke:rgb(102,87,130);stroke-width:2px;"/>
    </g>
    <g id="text4710" transform="matrix(1,0,0,1,41,65.462)">
        <text x="-4.449px" y="0px" style="font-family:'ArialMT', 'Arial', sans-serif;font-size:8px;">65</text>
    </g>
    <g id="circle4732" transform="matrix(1,0,0,1,-150,-1)">
        <circle cx="206" cy="140.904" r="10" style="fill:white;stroke:rgb(79,201,79);stroke-width:3px;"/>
    </g>
    <g id="text4734" transform="matrix(1,0,0,1,56,143.404)">
        <text x="-4.449px" y="0px" style="font-family:'ArialMT', 'Arial', sans-serif;font-size:8px;">29</text>
    </g>
    <g id="circle4808" transform="matrix(1,0,0,1,-150,-1)">
        <circle cx="341" cy="114.923" r="10" style="fill:white;stroke:rgb(79,201,79);stroke-width:3px;"/>
    </g>
    <g id="text4810" transform="matrix(1,0,0,1,191,117.423)">
        <text x="-4.449px" y="0px" style="font-family:'ArialMT', 'Arial', sans-serif;font-size:8px;">14</text>
    </g>
    <g id="circle4968" transform="matrix(1,0,0,1,-150,-1)">
        <circle cx="506" cy="140.904" r="10" style="fill:white;stroke:rgb(102,87,130);stroke-width:3px;"/>
    </g>
    <g id="text4970" transform="matrix(1,0,0,1,356,143.404)">
        <text x="-6.674px" y="0px" style="font-family:'ArialMT', 'Arial', sans-serif;font-size:8px;">130</text>
    </g>
    <g id="path3963" transform="matrix(1,0,0,1,-793.886,47.0725)">
        <path d="M882.367,8.734L882.367,-2.234L1181.47,-2.234L1181.47,7.737" style="fill:none;fill-rule:nonzero;stroke:black;stroke-width:1px;"/>
    </g>
    <g transform="matrix(1,0,0,1,134.8,28.5411)">
        <g id="text3967">
            <text x="8.809px" y="0px" style="font-family:'CambriaMath', 'Cambria Math', serif;font-size:40px;">None (Hn)</text>
        </g>
    </g>
    <g id="path3963-3" transform="matrix(1,0,0,1,-43.831,-3.79028)">
        <path d="M86.008,150.871L86.008,162.164L385.105,162.164L385.105,151.897" style="fill:none;fill-rule:nonzero;stroke:black;stroke-width:1.01px;"/>
    </g>
    <g transform="matrix(1,0,0,1,106.363,187.407)">
        <text x="0px" y="0px" style="font-family:'CambriaMath', 'Cambria Math', serif;font-size:40px;">None (F<tspan x="136.387px 158.711px " y="0px 0px ">nt</tspan>)</text>
    </g>
</svg>
