<?xml version="1.0" encoding="UTF-8" standalone="no"?>
<!DOCTYPE svg PUBLIC "-//W3C//DTD SVG 1.1//EN" "http://www.w3.org/Graphics/SVG/1.1/DTD/svg11.dtd">
<svg width="100%" height="100%" viewBox="0 0 432 198" version="1.1" xmlns="http://www.w3.org/2000/svg" xmlns:xlink="http://www.w3.org/1999/xlink" xml:space="preserve" xmlns:serif="http://www.serif.com/" style="fill-rule:evenodd;clip-rule:evenodd;">
    <g transform="matrix(1,0,0,1,242,164)">
        <path d="M-90,-103.923L-60,-103.923" style="fill:none;fill-rule:nonzero;stroke:rgb(102,87,130);stroke-width:5px;"/>
    </g>
    <g transform="matrix(1,0,0,1,242,164)">
        <path d="M-150,-103.923L-120,-103.923" style="fill:none;fill-rule:nonzero;stroke:rgb(102,87,130);stroke-width:5px;"/>
    </g>
    <g transform="matrix(1,0,0,1,242,164)">
        <path d="M-150,-51.962L-165,-77.942" style="fill:none;fill-rule:nonzero;stroke:rgb(102,87,130);stroke-width:5px;"/>
    </g>
    <g transform="matrix(1,0,0,1,242,164)">
        <path d="M-180,-103.923L-150,-103.923" style="fill:none;fill-rule:nonzero;stroke:rgb(102,87,130);stroke-width:5px;"/>
    </g>
    <g transform="matrix(1,0,0,1,211.463,164)">
        <path d="M-180,-103.923L-150,-103.923" style="fill:none;fill-rule:nonzero;stroke:rgb(102,87,130);stroke-width:5px;"/>
    </g>
    <g transform="matrix(1,0,0,1,195.901,190.72)">
        <path d="M-180,-103.923L-150,-103.923" style="fill:none;fill-rule:nonzero;stroke:rgb(102,87,130);stroke-width:5px;"/>
    </g>
    <g transform="matrix(1,0,0,1,242,164)">
        <path d="M-165,-77.942L-195,-77.942" style="fill:none;fill-rule:nonzero;stroke:rgb(102,87,130);stroke-width:5px;"/>
    </g>
    <g transform="matrix(1,0,0,1,242,164)">
        <path d="M-180,-51.962L-150,-51.962" style="fill:none;fill-rule:nonzero;stroke:rgb(102,87,130);stroke-width:5px;"/>
    </g>
    <g transform="matrix(1,0,0,1,242,164)">
        <path d="M-165,-25.981L-195,-25.981" style="fill:none;fill-rule:nonzero;stroke:rgb(102,87,130);stroke-width:5px;"/>
    </g>
    <g transform="matrix(1,0,0,1,242,164)">
        <path d="M-210,-51.962L-180,-51.962" style="fill:none;fill-rule:nonzero;stroke:rgb(102,87,130);stroke-width:5px;"/>
    </g>
    <g transform="matrix(1,0,0,1,242,164)">
        <path d="M-195,-25.981L-225,-25.981" style="fill:none;fill-rule:nonzero;stroke:rgb(102,87,130);stroke-width:5px;"/>
    </g>
    <g transform="matrix(1,0,0,1,242,164)">
        <path d="M-60,-103.923L-30,-103.923" style="fill:none;fill-rule:nonzero;stroke:rgb(102,87,130);stroke-width:5px;"/>
    </g>
    <g transform="matrix(1,0,0,1,242,164)">
        <path d="M30,-103.923L60,-103.923" style="fill:none;fill-rule:nonzero;stroke:rgb(102,87,130);stroke-width:5px;"/>
    </g>
    <g transform="matrix(1,0,0,1,242,164)">
        <path d="M-30,-103.923L0,-103.923" style="fill:none;fill-rule:nonzero;stroke:rgb(102,87,130);stroke-width:5px;"/>
    </g>
    <g transform="matrix(1,0,0,1,242,164)">
        <path d="M-120,-103.923L-90,-103.923" style="fill:none;fill-rule:nonzero;stroke:rgb(102,87,130);stroke-width:5px;"/>
    </g>
    <g transform="matrix(1,0,0,1,242,164)">
        <path d="M120,-103.923L150,-103.923" style="fill:none;fill-rule:nonzero;stroke:rgb(102,87,130);stroke-width:5px;"/>
    </g>
    <g transform="matrix(1,0,0,1,242,164)">
        <path d="M90,-103.923L120,-103.923" style="fill:none;fill-rule:nonzero;stroke:rgb(102,87,130);stroke-width:5px;"/>
    </g>
    <g transform="matrix(1,0,0,1,242,164)">
        <path d="M-225,-25.981L-210,-51.962" style="fill:none;fill-rule:nonzero;stroke:rgb(102,87,130);stroke-width:5px;"/>
    </g>
    <g transform="matrix(1,0,0,1,242,164)">
        <path d="M150,-103.923L180,-103.923" style="fill:none;fill-rule:nonzero;stroke:rgb(102,87,130);stroke-width:5px;"/>
    </g>
    <g transform="matrix(1,0,0,1,242,164)">
        <path d="M60,-103.923L90,-103.923" style="fill:none;fill-rule:nonzero;stroke:rgb(102,87,130);stroke-width:5px;"/>
    </g>
    <g transform="matrix(1,0,0,1,242,164)">
        <path d="M0,-103.923L30,-103.923" style="fill:none;fill-rule:nonzero;stroke:rgb(102,87,130);stroke-width:5px;"/>
    </g>
    <g transform="matrix(1,0,0,1,242,164)">
        <path d="M-135,-25.981L-165,-25.981" style="fill:none;fill-rule:nonzero;stroke:rgb(212,51,70);stroke-width:7px;"/>
    </g>
    <g transform="matrix(1,0,0,1,242,164)">
        <path d="M-135,-25.981L-150,-51.962" style="fill:none;fill-rule:nonzero;stroke:rgb(144,209,194);stroke-width:1.5px;stroke-dasharray:1,1;"/>
    </g>
    <g transform="matrix(1,0,0,1,242,164)">
        <path d="M-120,-51.962L-135,-25.981" style="fill:none;fill-rule:nonzero;stroke:rgb(212,51,70);stroke-width:7px;"/>
    </g>
    <g transform="matrix(1,0,0,1,242,164)">
        <path d="M-120,-51.962L-150,-51.962" style="fill:none;fill-rule:nonzero;stroke:rgb(144,209,194);stroke-width:1.5px;stroke-dasharray:1,1;"/>
    </g>
    <g transform="matrix(1,0,0,1,242,164)">
        <path d="M-135,-77.942L-120,-51.962" style="fill:none;fill-rule:nonzero;stroke:rgb(212,51,70);stroke-width:7px;"/>
    </g>
    <g transform="matrix(1,0,0,1,242,164)">
        <path d="M-135,-77.942L-150,-103.923" style="fill:none;fill-rule:nonzero;stroke:rgb(144,209,194);stroke-width:1.5px;stroke-dasharray:1,1;"/>
    </g>
    <g transform="matrix(1,0,0,1,242,164)">
        <path d="M-135,-77.942L-165,-77.942" style="fill:none;fill-rule:nonzero;stroke:rgb(144,209,194);stroke-width:1.5px;stroke-dasharray:1,1;"/>
    </g>
    <g transform="matrix(1,0,0,1,242,164)">
        <path d="M-135,-77.942L-150,-51.962" style="fill:none;fill-rule:nonzero;stroke:rgb(144,209,194);stroke-width:1.5px;stroke-dasharray:1,1;"/>
    </g>
    <g transform="matrix(1,0,0,1,242,164)">
        <path d="M-105,-77.942L-135,-77.942" style="fill:none;fill-rule:nonzero;stroke:rgb(212,51,70);stroke-width:7px;"/>
    </g>
    <g transform="matrix(1,0,0,1,242,164)">
        <path d="M-75,-77.942L-105,-77.942" style="fill:none;fill-rule:nonzero;stroke:rgb(212,51,70);stroke-width:7px;"/>
    </g>
    <g transform="matrix(1,0,0,1,242,164)">
        <path d="M-75,-77.942L-60,-103.923" style="fill:none;fill-rule:nonzero;stroke:rgb(144,209,194);stroke-width:1.5px;stroke-dasharray:1,1;"/>
    </g>
    <g transform="matrix(1,0,0,1,242,164)">
        <path d="M-75,-77.942L-90,-103.923" style="fill:none;fill-rule:nonzero;stroke:rgb(144,209,194);stroke-width:1.5px;stroke-dasharray:1,1;"/>
    </g>
    <g transform="matrix(1,0,0,1,242,164)">
        <path d="M-45,-77.942L-75,-77.942" style="fill:none;fill-rule:nonzero;stroke:rgb(212,51,70);stroke-width:7px;"/>
    </g>
    <g transform="matrix(1,0,0,1,242,164)">
        <path d="M-45,-77.942L-30,-103.923" style="fill:none;fill-rule:nonzero;stroke:rgb(144,209,194);stroke-width:1.5px;stroke-dasharray:1,1;"/>
    </g>
    <g transform="matrix(1,0,0,1,242,164)">
        <path d="M-30,-51.962L-45,-77.942" style="fill:none;fill-rule:nonzero;stroke:rgb(212,51,70);stroke-width:7px;"/>
    </g>
    <g transform="matrix(1,0,0,1,242,164)">
        <path d="M-60,-51.962L-30,-51.962" style="fill:none;fill-rule:nonzero;stroke:rgb(212,51,70);stroke-width:7px;"/>
    </g>
    <g transform="matrix(1,0,0,1,242,164)">
        <path d="M-60,-51.962L-75,-77.942" style="fill:none;fill-rule:nonzero;stroke:rgb(144,209,194);stroke-width:1.5px;stroke-dasharray:1,1;"/>
    </g>
    <g transform="matrix(1,0,0,1,242,164)">
        <path d="M-90,-51.962L-60,-51.962" style="fill:none;fill-rule:nonzero;stroke:rgb(212,51,70);stroke-width:7px;"/>
    </g>
    <g transform="matrix(1,0,0,1,242,164)">
        <path d="M-90,-51.962L-75,-77.942" style="fill:none;fill-rule:nonzero;stroke:rgb(144,209,194);stroke-width:1.5px;stroke-dasharray:1,1;"/>
    </g>
    <g transform="matrix(1,0,0,1,242,164)">
        <path d="M-105,-25.981L-90,-51.962" style="fill:none;fill-rule:nonzero;stroke:rgb(212,51,70);stroke-width:7px;"/>
    </g>
    <g transform="matrix(1,0,0,1,242,164)">
        <path d="M-75,-25.981L-105,-25.981" style="fill:none;fill-rule:nonzero;stroke:rgb(212,51,70);stroke-width:7px;"/>
    </g>
    <g transform="matrix(1,0,0,1,242,164)">
        <path d="M-75,-25.981L-60,-51.962" style="fill:none;fill-rule:nonzero;stroke:rgb(144,209,194);stroke-width:1.5px;stroke-dasharray:1,1;"/>
    </g>
    <g transform="matrix(1,0,0,1,242,164)">
        <path d="M-45,-25.981L-75,-25.981" style="fill:none;fill-rule:nonzero;stroke:rgb(212,51,70);stroke-width:7px;"/>
    </g>
    <g transform="matrix(1,0,0,1,242,164)">
        <path d="M-45,-25.981L-30,-51.962" style="fill:none;fill-rule:nonzero;stroke:rgb(144,209,194);stroke-width:1.5px;stroke-dasharray:1,1;"/>
    </g>
    <g transform="matrix(1,0,0,1,242,164)">
        <path d="M-15,-25.981L-45,-25.981" style="fill:none;fill-rule:nonzero;stroke:rgb(212,51,70);stroke-width:5px;"/>
    </g>
    <g transform="matrix(1,0,0,1,242,164)">
        <path d="M0,-51.962L-15,-25.981" style="fill:none;fill-rule:nonzero;stroke:rgb(212,51,70);stroke-width:7px;"/>
    </g>
    <g transform="matrix(1,0,0,1,242,164)">
        <path d="M0,-51.962L-30,-51.962" style="fill:none;fill-rule:nonzero;stroke:rgb(144,209,194);stroke-width:1.5px;stroke-dasharray:1,1;"/>
    </g>
    <g transform="matrix(1,0,0,1,242,164)">
        <path d="M-15,-77.942L0,-51.962" style="fill:none;fill-rule:nonzero;stroke:rgb(212,51,70);stroke-width:7px;"/>
    </g>
    <g transform="matrix(1,0,0,1,242,164)">
        <path d="M-15,-77.942L0,-103.923" style="fill:none;fill-rule:nonzero;stroke:rgb(144,209,194);stroke-width:1.5px;stroke-dasharray:1,1;"/>
    </g>
    <g transform="matrix(1,0,0,1,242,164)">
        <path d="M-15,-77.942L-30,-103.923" style="fill:none;fill-rule:nonzero;stroke:rgb(144,209,194);stroke-width:1.5px;stroke-dasharray:1,1;"/>
    </g>
    <g transform="matrix(1,0,0,1,212.344,164)">
        <path d="M-15,-77.942L-30,-103.923" style="fill:none;fill-rule:nonzero;stroke:rgb(144,209,194);stroke-width:1.5px;stroke-dasharray:1,1;"/>
    </g>
    <g transform="matrix(1,0,0,1,212.344,217.439)">
        <path d="M-15,-77.942L-30,-103.923" style="fill:none;fill-rule:nonzero;stroke:rgb(144,209,194);stroke-width:1.5px;stroke-dasharray:1,1;"/>
    </g>
    <g transform="matrix(1,0,0,1,167.42,189.839)">
        <path d="M-15,-77.942L-30,-103.923" style="fill:none;fill-rule:nonzero;stroke:rgb(144,209,194);stroke-width:1.5px;stroke-dasharray:1,1;"/>
    </g>
    <g transform="matrix(1,0,0,1,242,164)">
        <path d="M-15,-77.942L-30,-51.962" style="fill:none;fill-rule:nonzero;stroke:rgb(144,209,194);stroke-width:1.5px;stroke-dasharray:1,1;"/>
    </g>
    <g transform="matrix(1,0,0,1,242,164)">
        <path d="M15,-77.942L-15,-77.942" style="fill:none;fill-rule:nonzero;stroke:rgb(212,51,70);stroke-width:7px;"/>
    </g>
    <g transform="matrix(1,0,0,1,242,164)">
        <path d="M45,-77.942L15,-77.942" style="fill:none;fill-rule:nonzero;stroke:rgb(212,51,70);stroke-width:7px;"/>
    </g>
    <g transform="matrix(1,0,0,1,242,164)">
        <path d="M45,-77.942L60,-103.923" style="fill:none;fill-rule:nonzero;stroke:rgb(144,209,194);stroke-width:1.5px;stroke-dasharray:1,1;"/>
    </g>
    <g transform="matrix(1,0,0,1,272.537,164)">
        <path d="M45,-77.942L60,-103.923" style="fill:none;fill-rule:nonzero;stroke:rgb(144,209,194);stroke-width:1.5px;stroke-dasharray:1,1;"/>
    </g>
    <g transform="matrix(1,0,0,1,242,164)">
        <path d="M75,-77.942L45,-77.942" style="fill:none;fill-rule:nonzero;stroke:rgb(212,51,70);stroke-width:7px;"/>
    </g>
    <g transform="matrix(1,0,0,1,302.486,164)">
        <path d="M75,-77.942L45,-77.942" style="fill:none;fill-rule:nonzero;stroke:rgb(212,51,70);stroke-width:7px;"/>
    </g>
    <g transform="matrix(1,0,0,1,242,164)">
        <path d="M75,-77.942L60,-103.923" style="fill:none;fill-rule:nonzero;stroke:rgb(144,209,194);stroke-width:1.5px;stroke-dasharray:1,1;"/>
    </g>
    <g transform="matrix(1,0,0,1,212.051,164)">
        <path d="M75,-77.942L60,-103.923" style="fill:none;fill-rule:nonzero;stroke:rgb(144,209,194);stroke-width:1.5px;stroke-dasharray:1,1;"/>
    </g>
    <g transform="matrix(1,0,0,1,242,164)">
        <path d="M90,-51.962L75,-77.942" style="fill:none;fill-rule:nonzero;stroke:rgb(212,51,70);stroke-width:7px;"/>
    </g>
    <g transform="matrix(1,0,0,1,242,164)">
        <path d="M60,-51.962L90,-51.962" style="fill:none;fill-rule:nonzero;stroke:rgb(212,51,70);stroke-width:7px;"/>
    </g>
    <g transform="matrix(1,0,0,1,242,164)">
        <path d="M60,-51.962L45,-77.942" style="fill:none;fill-rule:nonzero;stroke:rgb(144,209,194);stroke-width:1.5px;stroke-dasharray:1,1;"/>
    </g>
    <g transform="matrix(1,0,0,1,242,164)">
        <path d="M30,-51.962L60,-51.962" style="fill:none;fill-rule:nonzero;stroke:rgb(212,51,70);stroke-width:7px;"/>
    </g>
    <g transform="matrix(1,0,0,1,242,164)">
        <path d="M30,-51.962L45,-77.942" style="fill:none;fill-rule:nonzero;stroke:rgb(144,209,194);stroke-width:1.5px;stroke-dasharray:1,1;"/>
    </g>
    <g transform="matrix(1,0,0,1,242,164)">
        <path d="M30,-51.962L15,-77.942" style="fill:none;fill-rule:nonzero;stroke:rgb(144,209,194);stroke-width:1.5px;stroke-dasharray:1,1;"/>
    </g>
    <g transform="matrix(1,0,0,1,242,164)">
        <path d="M15,-25.981L30,-51.962" style="fill:none;fill-rule:nonzero;stroke:rgb(212,51,70);stroke-width:7px;"/>
    </g>
    <g transform="matrix(1,0,0,1,242,164)">
        <path d="M15,-25.981L0,-51.962" style="fill:none;fill-rule:nonzero;stroke:rgb(144,209,194);stroke-width:1.5px;stroke-dasharray:1,1;"/>
    </g>
    <g transform="matrix(1,0,0,1,242,164)">
        <path d="M15,-25.981L-15,-25.981" style="fill:none;fill-rule:nonzero;stroke:rgb(144,209,194);stroke-width:1.5px;stroke-dasharray:1,1;"/>
    </g>
    <g transform="matrix(1,0,0,1,242,164)">
        <path d="M45,-25.981L15,-25.981" style="fill:none;fill-rule:nonzero;stroke:rgb(212,51,70);stroke-width:7px;"/>
    </g>
    <g transform="matrix(1,0,0,1,242,164)">
        <path d="M75,-25.981L45,-25.981" style="fill:none;fill-rule:nonzero;stroke:rgb(212,51,70);stroke-width:7px;"/>
    </g>
    <g transform="matrix(1,0,0,1,242,164)">
        <path d="M75,-25.981L90,-51.962" style="fill:none;fill-rule:nonzero;stroke:rgb(144,209,194);stroke-width:1.5px;stroke-dasharray:1,1;"/>
    </g>
    <g transform="matrix(1,0,0,1,242,164)">
        <path d="M75,-25.981L60,-51.962" style="fill:none;fill-rule:nonzero;stroke:rgb(144,209,194);stroke-width:1.5px;stroke-dasharray:1,1;"/>
    </g>
    <g transform="matrix(1,0,0,1,242,164)">
        <path d="M105,-25.981L75,-25.981" style="fill:none;fill-rule:nonzero;stroke:rgb(212,51,70);stroke-width:7px;"/>
    </g>
    <g transform="matrix(1,0,0,1,242,164)">
        <path d="M120,-51.962L105,-25.981" style="fill:none;fill-rule:nonzero;stroke:rgb(212,51,70);stroke-width:7px;"/>
    </g>
    <g transform="matrix(1,0,0,1,242,164)">
        <path d="M105,-77.942L120,-51.962" style="fill:none;fill-rule:nonzero;stroke:rgb(212,51,70);stroke-width:7px;"/>
    </g>
    <g transform="matrix(1,0,0,1,242,164)">
        <path d="M105,-77.942L120,-103.923" style="fill:none;fill-rule:nonzero;stroke:rgb(144,209,194);stroke-width:1.5px;stroke-dasharray:1,1;"/>
    </g>
    <g transform="matrix(1,0,0,1,242,164)">
        <path d="M105,-77.942L90,-103.923" style="fill:none;fill-rule:nonzero;stroke:rgb(144,209,194);stroke-width:1.5px;stroke-dasharray:1,1;"/>
    </g>
    <g transform="matrix(1,0,0,1,242,164)">
        <path d="M105,-77.942L75,-77.942" style="fill:none;fill-rule:nonzero;stroke:rgb(144,209,194);stroke-width:1.5px;stroke-dasharray:1,1;"/>
    </g>
    <g transform="matrix(1,0,0,1,242,164)">
        <path d="M150,-51.962L135,-77.942" style="fill:none;fill-rule:nonzero;stroke:rgb(212,51,70);stroke-width:7px;"/>
    </g>
    <g transform="matrix(1,0,0,1,242,164)">
        <path d="M135,-25.981L150,-51.962" style="fill:none;fill-rule:nonzero;stroke:rgb(212,51,70);stroke-width:7px;"/>
    </g>
    <g transform="matrix(1,0,0,1,242,164)">
        <path d="M135,-25.981L120,-51.962" style="fill:none;fill-rule:nonzero;stroke:rgb(144,209,194);stroke-width:1.5px;stroke-dasharray:1,1;"/>
    </g>
    <g transform="matrix(1,0,0,1,242,164)">
        <path d="M135,-25.981L105,-25.981" style="fill:none;fill-rule:nonzero;stroke:rgb(144,209,194);stroke-width:1.5px;stroke-dasharray:1,1;"/>
    </g>
    <g transform="matrix(1,0,0,1,242,164)">
        <circle cx="135" cy="-25.981" r="10" style="fill:white;stroke:rgb(212,51,70);stroke-width:3px;"/>
    </g>
    <g transform="matrix(1,0,0,1,377,141.519)">
        <text x="-4.449px" y="0px" style="font-family:'ArialMT', 'Arial', sans-serif;font-size:8px;">96</text>
    </g>
    <g transform="matrix(1,0,0,1,242,164)">
        <circle cx="-195" cy="-77.942" r="10" style="fill:white;stroke:rgb(102,87,130);stroke-width:3px;"/>
    </g>
    <g transform="matrix(1,0,0,1,47,89.558)">
        <text x="-4.449px" y="0px" style="font-family:'ArialMT', 'Arial', sans-serif;font-size:8px;">59</text>
    </g>
    <g transform="matrix(1,0,0,1,242,164)">
        <circle cx="-30" cy="-103.923" r="10" style="fill:white;stroke:rgb(102,87,130);stroke-width:3px;"/>
    </g>
    <g transform="matrix(1,0,0,1,242,164)">
        <circle cx="15" cy="-25.981" r="10" style="fill:white;stroke:rgb(212,51,70);stroke-width:3px;"/>
    </g>
    <g transform="matrix(1,0,0,1,257,141.519)">
        <text x="-4.449px" y="0px" style="font-family:'ArialMT', 'Arial', sans-serif;font-size:8px;">88</text>
    </g>
    <g transform="matrix(1,0,0,1,242,164)">
        <circle cx="45" cy="-25.981" r="10" style="fill:white;stroke:rgb(212,51,70);stroke-width:3px;"/>
    </g>
    <g transform="matrix(1,0,0,1,287,141.519)">
        <text x="-4.449px" y="0px" style="font-family:'ArialMT', 'Arial', sans-serif;font-size:8px;">89</text>
    </g>
    <g transform="matrix(1,0,0,1,242,164)">
        <circle cx="105" cy="-25.981" r="10" style="fill:white;stroke:rgb(212,51,70);stroke-width:3px;"/>
    </g>
    <g transform="matrix(1,0,0,1,347,141.519)">
        <text x="-4.449px" y="0px" style="font-family:'ArialMT', 'Arial', sans-serif;font-size:8px;">91</text>
    </g>
    <g transform="matrix(1,0,0,1,242,164)">
        <circle cx="60" cy="-103.923" r="10" style="fill:white;stroke:rgb(102,87,130);stroke-width:3px;"/>
    </g>
    <g transform="matrix(1,0,0,1,242,164)">
        <circle cx="0" cy="-51.962" r="10" style="fill:white;stroke:rgb(212,51,70);stroke-width:3px;"/>
    </g>
    <g transform="matrix(1,0,0,1,242,115.538)">
        <text x="-4.449px" y="0px" style="font-family:'ArialMT', 'Arial', sans-serif;font-size:8px;">80</text>
    </g>
    <g transform="matrix(1,0,0,1,242,164)">
        <circle cx="15" cy="-77.942" r="10" style="fill:white;stroke:rgb(212,51,70);stroke-width:3px;"/>
    </g>
    <g transform="matrix(1,0,0,1,257,89.558)">
        <text x="-4.449px" y="0px" style="font-family:'ArialMT', 'Arial', sans-serif;font-size:8px;">82</text>
    </g>
    <g transform="matrix(1,0,0,1,242,164)">
        <circle cx="90" cy="-51.962" r="10" style="fill:white;stroke:rgb(212,51,70);stroke-width:3px;"/>
    </g>
    <g transform="matrix(1,0,0,1,332,115.538)">
        <text x="-4.449px" y="0px" style="font-family:'ArialMT', 'Arial', sans-serif;font-size:8px;">85</text>
    </g>
    <g transform="matrix(1,0,0,1,242,164)">
        <circle cx="120" cy="-51.962" r="10" style="fill:white;stroke:rgb(212,51,70);stroke-width:3px;"/>
    </g>
    <g transform="matrix(1,0,0,1,362,115.538)">
        <text x="-4.449px" y="0px" style="font-family:'ArialMT', 'Arial', sans-serif;font-size:8px;">92</text>
    </g>
    <g transform="matrix(1,0,0,1,242,164)">
        <circle cx="-90" cy="-103.923" r="10" style="fill:white;stroke:rgb(102,87,130);stroke-width:3px;"/>
    </g>
    <g transform="matrix(1,0,0,1,242,164)">
        <circle cx="-180" cy="-51.962" r="10" style="fill:white;stroke:rgb(102,87,130);stroke-width:3px;"/>
    </g>
    <g transform="matrix(1,0,0,1,62,115.538)">
        <text x="-4.449px" y="0px" style="font-family:'ArialMT', 'Arial', sans-serif;font-size:8px;">62</text>
    </g>
    <g transform="matrix(1,0,0,1,242,164)">
        <circle cx="-45" cy="-77.942" r="10" style="fill:white;stroke:rgb(212,51,70);stroke-width:3px;"/>
    </g>
    <g transform="matrix(1,0,0,1,197,89.558)">
        <text x="-4.449px" y="0px" style="font-family:'ArialMT', 'Arial', sans-serif;font-size:8px;">72</text>
    </g>
    <g transform="matrix(1,0,0,1,242,164)">
        <circle cx="-45" cy="-25.981" r="10" style="fill:white;stroke:rgb(212,51,70);stroke-width:3px;"/>
    </g>
    <g transform="matrix(1,0,0,1,197,141.519)">
        <text x="-4.449px" y="0px" style="font-family:'ArialMT', 'Arial', sans-serif;font-size:8px;">78</text>
    </g>
    <g transform="matrix(1,0,0,1,242,164)">
        <circle cx="-75" cy="-77.942" r="10" style="fill:white;stroke:rgb(212,51,70);stroke-width:3px;"/>
    </g>
    <g transform="matrix(1,0,0,1,167,89.558)">
        <text x="-4.449px" y="0px" style="font-family:'ArialMT', 'Arial', sans-serif;font-size:8px;">71</text>
    </g>
    <g transform="matrix(1,0,0,1,242,164)">
        <circle cx="-15" cy="-25.981" r="10" style="fill:white;stroke:rgb(212,51,70);stroke-width:3px;"/>
    </g>
    <g transform="matrix(1,0,0,1,227,141.519)">
        <text x="-4.449px" y="0px" style="font-family:'ArialMT', 'Arial', sans-serif;font-size:8px;">79</text>
    </g>
    <g transform="matrix(1,0,0,1,242,164)">
        <circle cx="135" cy="-77.942" r="10" style="fill:white;stroke:rgb(212,51,70);stroke-width:3px;"/>
    </g>
    <g transform="matrix(1,0,0,1,377,89.558)">
        <text x="-4.449px" y="0px" style="font-family:'ArialMT', 'Arial', sans-serif;font-size:8px;">94</text>
    </g>
    <g transform="matrix(1,0,0,1,242,164)">
        <circle cx="150" cy="-51.962" r="10" style="fill:white;stroke:rgb(212,51,70);stroke-width:3px;"/>
    </g>
    <g transform="matrix(1,0,0,1,392,115.538)">
        <text x="-4.449px" y="0px" style="font-family:'ArialMT', 'Arial', sans-serif;font-size:8px;">95</text>
    </g>
    <g transform="matrix(1,0,0,1,242,164)">
        <circle cx="-90" cy="-51.962" r="10" style="fill:white;stroke:rgb(212,51,70);stroke-width:3px;"/>
    </g>
    <g transform="matrix(1,0,0,1,152,115.538)">
        <text x="-4.449px" y="0px" style="font-family:'ArialMT', 'Arial', sans-serif;font-size:8px;">75</text>
    </g>
    <g transform="matrix(1,0,0,1,242,164)">
        <circle cx="60" cy="-51.962" r="10" style="fill:white;stroke:rgb(212,51,70);stroke-width:3px;"/>
    </g>
    <g transform="matrix(1,0,0,1,302,115.538)">
        <text x="-4.449px" y="0px" style="font-family:'ArialMT', 'Arial', sans-serif;font-size:8px;">86</text>
    </g>
    <g transform="matrix(1,0,0,1,242,164)">
        <circle cx="-150" cy="-51.962" r="10" style="fill:white;stroke:rgb(102,87,130);stroke-width:3px;"/>
    </g>
    <g transform="matrix(1,0,0,1,92,115.538)">
        <text x="-4.449px" y="0px" style="font-family:'ArialMT', 'Arial', sans-serif;font-size:8px;">61</text>
    </g>
    <g transform="matrix(1,0,0,1,242,164)">
        <circle cx="-210" cy="-51.962" r="10" style="fill:white;stroke:rgb(102,87,130);stroke-width:3px;"/>
    </g>
    <g transform="matrix(1,0,0,1,32,115.538)">
        <text x="-4.449px" y="0px" style="font-family:'ArialMT', 'Arial', sans-serif;font-size:8px;">63</text>
    </g>
    <g transform="matrix(1,0,0,1,242,164)">
        <circle cx="-120" cy="-103.923" r="10" style="fill:white;stroke:rgb(102,87,130);stroke-width:3px;"/>
    </g>
    <g transform="matrix(1,0,0,1,242,164)">
        <circle cx="105" cy="-77.942" r="10" style="fill:white;stroke:rgb(212,51,70);stroke-width:3px;"/>
    </g>
    <g transform="matrix(1,0,0,1,347,89.558)">
        <text x="-4.449px" y="0px" style="font-family:'ArialMT', 'Arial', sans-serif;font-size:8px;">93</text>
    </g>
    <g transform="matrix(1,0,0,1,242,164)">
        <circle cx="90" cy="-103.923" r="10" style="fill:white;stroke:rgb(102,87,130);stroke-width:3px;"/>
    </g>
    <g transform="matrix(1,0,0,1,242,164)">
        <circle cx="-135" cy="-77.942" r="10" style="fill:white;stroke:rgb(212,51,70);stroke-width:3px;"/>
    </g>
    <g transform="matrix(1,0,0,1,107,89.558)">
        <text x="-4.449px" y="0px" style="font-family:'ArialMT', 'Arial', sans-serif;font-size:8px;">69</text>
    </g>
    <g transform="matrix(1,0,0,1,242,164)">
        <circle cx="75" cy="-77.942" r="10" style="fill:white;stroke:rgb(212,51,70);stroke-width:3px;"/>
    </g>
    <g transform="matrix(1,0,0,1,317,89.558)">
        <text x="-4.449px" y="0px" style="font-family:'ArialMT', 'Arial', sans-serif;font-size:8px;">84</text>
    </g>
    <g transform="matrix(1,0,0,1,242,164)">
        <circle cx="-165" cy="-77.942" r="10" style="fill:white;stroke:rgb(102,87,130);stroke-width:3px;"/>
    </g>
    <g transform="matrix(1,0,0,1,77,89.558)">
        <text x="-4.449px" y="0px" style="font-family:'ArialMT', 'Arial', sans-serif;font-size:8px;">60</text>
    </g>
    <g transform="matrix(1,0,0,1,242,164)">
        <circle cx="150" cy="-103.923" r="10" style="fill:white;stroke:rgb(102,87,130);stroke-width:3px;"/>
    </g>
    <g transform="matrix(1,0,0,1,242,164)">
        <circle cx="0" cy="-103.923" r="10" style="fill:white;stroke:rgb(102,87,130);stroke-width:3px;"/>
    </g>
    <g transform="matrix(1,0,0,1,242,164)">
        <circle cx="-120" cy="-51.962" r="10" style="fill:white;stroke:rgb(212,51,70);stroke-width:3px;"/>
    </g>
    <g transform="matrix(1,0,0,1,122,115.538)">
        <text x="-4.449px" y="0px" style="font-family:'ArialMT', 'Arial', sans-serif;font-size:8px;">68</text>
    </g>
    <g transform="matrix(1,0,0,1,242,164)">
        <circle cx="-15" cy="-77.942" r="10" style="fill:white;stroke:rgb(212,51,70);stroke-width:3px;"/>
    </g>
    <g transform="matrix(1,0,0,1,227,89.558)">
        <text x="-4.449px" y="0px" style="font-family:'ArialMT', 'Arial', sans-serif;font-size:8px;">81</text>
    </g>
    <g transform="matrix(1,0,0,1,242,164)">
        <circle cx="-180" cy="-103.923" r="10" style="fill:white;stroke:rgb(102,87,130);stroke-width:3px;"/>
    </g>
    <g transform="matrix(1,0,0,1,242,164)">
        <circle cx="-195" cy="-25.981" r="10" style="fill:white;stroke:rgb(102,87,130);stroke-width:3px;"/>
    </g>
    <g transform="matrix(1,0,0,1,47,141.519)">
        <text x="-4.449px" y="0px" style="font-family:'ArialMT', 'Arial', sans-serif;font-size:8px;">65</text>
    </g>
    <g transform="matrix(1,0,0,1,242,164)">
        <circle cx="-105" cy="-77.942" r="10" style="fill:white;stroke:rgb(212,51,70);stroke-width:3px;"/>
    </g>
    <g transform="matrix(1,0,0,1,137,89.558)">
        <text x="-4.449px" y="0px" style="font-family:'ArialMT', 'Arial', sans-serif;font-size:8px;">70</text>
    </g>
    <g transform="matrix(1,0,0,1,242,164)">
        <circle cx="-75" cy="-25.981" r="10" style="fill:white;stroke:rgb(212,51,70);stroke-width:3px;"/>
    </g>
    <g transform="matrix(1,0,0,1,167,141.519)">
        <text x="-4.449px" y="0px" style="font-family:'ArialMT', 'Arial', sans-serif;font-size:8px;">77</text>
    </g>
    <g transform="matrix(1,0,0,1,242,164)">
        <circle cx="30" cy="-103.923" r="10" style="fill:white;stroke:rgb(102,87,130);stroke-width:3px;"/>
    </g>
    <g transform="matrix(1,0,0,1,242,164)">
        <circle cx="-30" cy="-51.962" r="10" style="fill:white;stroke:rgb(212,51,70);stroke-width:3px;"/>
    </g>
    <g transform="matrix(1,0,0,1,212,115.538)">
        <text x="-4.449px" y="0px" style="font-family:'ArialMT', 'Arial', sans-serif;font-size:8px;">73</text>
    </g>
    <g transform="matrix(1,0,0,1,242,164)">
        <circle cx="75" cy="-25.981" r="10" style="fill:white;stroke:rgb(212,51,70);stroke-width:3px;"/>
    </g>
    <g transform="matrix(1,0,0,1,317,141.519)">
        <text x="-4.449px" y="0px" style="font-family:'ArialMT', 'Arial', sans-serif;font-size:8px;">90</text>
    </g>
    <g transform="matrix(1,0,0,1,242,164)">
        <circle cx="120" cy="-103.923" r="10" style="fill:white;stroke:rgb(102,87,130);stroke-width:3px;"/>
    </g>
    <g transform="matrix(1,0,0,1,242,164)">
        <circle cx="-105" cy="-25.981" r="10" style="fill:white;stroke:rgb(212,51,70);stroke-width:3px;"/>
    </g>
    <g transform="matrix(1,0,0,1,137,141.519)">
        <text x="-4.449px" y="0px" style="font-family:'ArialMT', 'Arial', sans-serif;font-size:8px;">76</text>
    </g>
    <g transform="matrix(1,0,0,1,242,164)">
        <circle cx="45" cy="-77.942" r="10" style="fill:white;stroke:rgb(212,51,70);stroke-width:3px;"/>
    </g>
    <g transform="matrix(1,0,0,1,287,89.558)">
        <text x="-4.449px" y="0px" style="font-family:'ArialMT', 'Arial', sans-serif;font-size:8px;">83</text>
    </g>
    <g transform="matrix(1,0,0,1,242,164)">
        <circle cx="30" cy="-51.962" r="10" style="fill:white;stroke:rgb(212,51,70);stroke-width:3px;"/>
    </g>
    <g transform="matrix(1,0,0,1,272,115.538)">
        <text x="-4.449px" y="0px" style="font-family:'ArialMT', 'Arial', sans-serif;font-size:8px;">87</text>
    </g>
    <g transform="matrix(1,0,0,1,242,164)">
        <circle cx="-165" cy="-25.981" r="10" style="fill:white;stroke:rgb(102,87,130);stroke-width:3px;"/>
    </g>
    <g transform="matrix(1,0,0,1,77,141.519)">
        <text x="-4.449px" y="0px" style="font-family:'ArialMT', 'Arial', sans-serif;font-size:8px;">66</text>
    </g>
    <g transform="matrix(1,0,0,1,242,164)">
        <circle cx="-150" cy="-103.923" r="10" style="fill:white;stroke:rgb(102,87,130);stroke-width:3px;"/>
    </g>
    <g transform="matrix(1,0,0,1,242,164)">
        <circle cx="-60" cy="-103.923" r="10" style="fill:white;stroke:rgb(102,87,130);stroke-width:3px;"/>
    </g>
    <g transform="matrix(1,0,0,1,242,164)">
        <circle cx="-225" cy="-25.981" r="10" style="fill:white;stroke:rgb(102,87,130);stroke-width:3px;"/>
    </g>
    <g transform="matrix(1,0,0,1,17,141.519)">
        <text x="-4.449px" y="0px" style="font-family:'ArialMT', 'Arial', sans-serif;font-size:8px;">64</text>
    </g>
    <g transform="matrix(1,0,0,1,242,164)">
        <circle cx="-135" cy="-25.981" r="10" style="fill:white;stroke:rgb(212,51,70);stroke-width:3px;"/>
    </g>
    <g transform="matrix(1,0,0,1,107,141.519)">
        <text x="-4.449px" y="0px" style="font-family:'ArialMT', 'Arial', sans-serif;font-size:8px;">67</text>
    </g>
    <g transform="matrix(1,0,0,1,242,164)">
        <circle cx="-60" cy="-51.962" r="10" style="fill:white;stroke:rgb(212,51,70);stroke-width:3px;"/>
    </g>
    <g transform="matrix(1,0,0,1,182,115.538)">
        <text x="-4.449px" y="0px" style="font-family:'ArialMT', 'Arial', sans-serif;font-size:8px;">74</text>
    </g>
    <g id="path3963" transform="matrix(1,0,0,1,1.83513,0.791915)">
        <path d="M45.623,47.665L45.623,36.697L344.73,36.697L344.73,46.668" style="fill:none;fill-rule:nonzero;stroke:black;stroke-width:1px;"/>
    </g>
    <g transform="matrix(1,0,0,1,148.934,189.924)">
        <text x="0px" y="0px" style="font-family:'CambriaMath', 'Cambria Math', serif;font-size:40px;">None (Hn)</text>
    </g>
    <g id="path3963-3" transform="matrix(1,0,0,1,61.0182,0.791915)">
        <path d="M32.658,144.632L32.658,155.925L331.755,155.925L331.755,145.659" style="fill:none;fill-rule:nonzero;stroke:black;stroke-width:1.01px;"/>
    </g>
    <g transform="matrix(1,0,0,1,62.6252,29.0146)">
        <text x="0px" y="0px" style="font-family:'CambriaMath', 'Cambria Math', serif;font-size:40px;">None (F<tspan x="136.387px 158.711px " y="0px 0px ">nt</tspan> F<tspan x="201.738px 224.063px " y="0px 0px ">nb</tspan>)</text>
    </g>
</svg>
