<?xml version="1.0" encoding="UTF-8" standalone="no"?>
<!DOCTYPE svg PUBLIC "-//W3C//DTD SVG 1.1//EN" "http://www.w3.org/Graphics/SVG/1.1/DTD/svg11.dtd">
<svg width="100%" height="100%" viewBox="0 0 426 196" version="1.1" xmlns="http://www.w3.org/2000/svg" xmlns:xlink="http://www.w3.org/1999/xlink" xml:space="preserve" xmlns:serif="http://www.serif.com/" style="fill-rule:evenodd;clip-rule:evenodd;">
    <g transform="matrix(1,0,0,1,-79,166)">
        <path d="M330,-103.923L300,-103.923" style="fill:none;fill-rule:nonzero;stroke:rgb(102,87,130);stroke-width:5px;"/>
    </g>
    <g transform="matrix(1,0,0,1,-79,166)">
        <path d="M150,-103.923L120,-103.923" style="fill:none;fill-rule:nonzero;stroke:rgb(102,87,130);stroke-width:5px;"/>
    </g>
    <g transform="matrix(1,0,0,1,-79,166)">
        <path d="M180,-103.923L150,-103.923" style="fill:none;fill-rule:nonzero;stroke:rgb(102,87,130);stroke-width:5px;"/>
    </g>
    <g transform="matrix(1,0,0,1,-79,166)">
        <path d="M360,-103.923L330,-103.923" style="fill:none;fill-rule:nonzero;stroke:rgb(102,87,130);stroke-width:5px;"/>
    </g>
    <g transform="matrix(1,0,0,1,-79,166)">
        <path d="M390,-103.923L360,-103.923" style="fill:none;fill-rule:nonzero;stroke:rgb(102,87,130);stroke-width:5px;"/>
    </g>
    <g transform="matrix(1,0,0,1,-79,166)">
        <path d="M420,-51.962L435,-77.942" style="fill:none;fill-rule:nonzero;stroke:rgb(102,87,130);stroke-width:5px;"/>
    </g>
    <g transform="matrix(1,0,0,1,-79,166)">
        <path d="M435,-25.981L420,-51.962" style="fill:none;fill-rule:nonzero;stroke:rgb(102,87,130);stroke-width:5px;"/>
    </g>
    <g transform="matrix(1,0,0,1,-79,166)">
        <path d="M120,-103.923L90,-103.923" style="fill:none;fill-rule:nonzero;stroke:rgb(102,87,130);stroke-width:5px;"/>
    </g>
    <g transform="matrix(1,0,0,1,-79,166)">
        <path d="M300,-103.923L270,-103.923" style="fill:none;fill-rule:nonzero;stroke:rgb(102,87,130);stroke-width:5px;"/>
    </g>
    <g transform="matrix(1,0,0,1,-79,166)">
        <path d="M420,-103.923L390,-103.923" style="fill:none;fill-rule:nonzero;stroke:rgb(102,87,130);stroke-width:5px;"/>
    </g>
    <g transform="matrix(1,0,0,1,-79,166)">
        <path d="M465,-25.981L495,-25.981" style="fill:none;fill-rule:nonzero;stroke:rgb(102,87,130);stroke-width:5px;"/>
    </g>
    <g transform="matrix(1,0,0,1,-79,166)">
        <path d="M450,-51.962L465,-25.981" style="fill:none;fill-rule:nonzero;stroke:rgb(102,87,130);stroke-width:5px;"/>
    </g>
    <g transform="matrix(1,0,0,1,-79,166)">
        <path d="M435,-77.942L465,-77.942" style="fill:none;fill-rule:nonzero;stroke:rgb(102,87,130);stroke-width:5px;"/>
    </g>
    <g transform="matrix(1,0,0,1,-79,166)">
        <path d="M210,-103.923L180,-103.923" style="fill:none;fill-rule:nonzero;stroke:rgb(102,87,130);stroke-width:5px;"/>
    </g>
    <g transform="matrix(1,0,0,1,-79,166)">
        <path d="M270,-103.923L240,-103.923" style="fill:none;fill-rule:nonzero;stroke:rgb(102,87,130);stroke-width:5px;"/>
    </g>
    <g transform="matrix(1,0,0,1,-79,166)">
        <path d="M465,-77.942L450,-51.962" style="fill:none;fill-rule:nonzero;stroke:rgb(102,87,130);stroke-width:5px;"/>
    </g>
    <g transform="matrix(1,0,0,1,-79,166)">
        <path d="M450,-103.923L420,-103.923" style="fill:none;fill-rule:nonzero;stroke:rgb(102,87,130);stroke-width:5px;"/>
    </g>
    <g transform="matrix(1,0,0,1,-79,166)">
        <path d="M480,-103.923L450,-103.923" style="fill:none;fill-rule:nonzero;stroke:rgb(102,87,130);stroke-width:5px;"/>
    </g>
    <g transform="matrix(1,0,0,1,-79,166)">
        <path d="M240,-103.923L210,-103.923" style="fill:none;fill-rule:nonzero;stroke:rgb(102,87,130);stroke-width:5px;"/>
    </g>
    <g transform="matrix(1,0,0,1,-79,166)">
        <path d="M405,-25.981L435,-25.981" style="fill:none;fill-rule:nonzero;stroke:rgb(79,201,79);stroke-width:7px;"/>
    </g>
    <g transform="matrix(1,0,0,1,-79,166)">
        <path d="M390,-51.962L405,-25.981" style="fill:none;fill-rule:nonzero;stroke:rgb(79,201,79);stroke-width:7px;"/>
    </g>
    <g transform="matrix(1,0,0,1,-79,166)">
        <path d="M405,-77.942L390,-51.962" style="fill:none;fill-rule:nonzero;stroke:rgb(79,201,79);stroke-width:7px;"/>
    </g>
    <g transform="matrix(1,0,0,1,-79,166)">
        <path d="M405,-77.942L420,-103.923" style="fill:none;fill-rule:nonzero;stroke:rgb(144,209,194);stroke-width:1.5px;stroke-dasharray:1,1;"/>
    </g>
    <g transform="matrix(1,0,0,1,-79,166)">
        <path d="M405,-77.942L435,-77.942" style="fill:none;fill-rule:nonzero;stroke:rgb(144,209,194);stroke-width:1.5px;stroke-dasharray:1,1;"/>
    </g>
    <g transform="matrix(1,0,0,1,-79,166)">
        <path d="M405,-77.942L420,-51.962" style="fill:none;fill-rule:nonzero;stroke:rgb(144,209,194);stroke-width:1.5px;stroke-dasharray:1,1;"/>
    </g>
    <g transform="matrix(1,0,0,1,-79,166)">
        <path d="M375,-77.942L405,-77.942" style="fill:none;fill-rule:nonzero;stroke:rgb(79,201,79);stroke-width:7px;"/>
    </g>
    <g transform="matrix(1,0,0,1,-79,166)">
        <path d="M360,-51.962L375,-77.942" style="fill:none;fill-rule:nonzero;stroke:rgb(79,201,79);stroke-width:7px;"/>
    </g>
    <g transform="matrix(1,0,0,1,-79,166)">
        <path d="M375,-25.981L360,-51.962" style="fill:none;fill-rule:nonzero;stroke:rgb(79,201,79);stroke-width:7px;"/>
    </g>
    <g transform="matrix(1,0,0,1,-79,166)">
        <path d="M375,-25.981L405,-25.981" style="fill:none;fill-rule:nonzero;stroke:rgb(144,209,194);stroke-width:1.5px;stroke-dasharray:1,1;"/>
    </g>
    <g transform="matrix(1,0,0,1,-79,166)">
        <path d="M345,-25.981L375,-25.981" style="fill:none;fill-rule:nonzero;stroke:rgb(79,201,79);stroke-width:7px;"/>
    </g>
    <g transform="matrix(1,0,0,1,-79,166)">
        <path d="M330,-51.962L345,-25.981" style="fill:none;fill-rule:nonzero;stroke:rgb(79,201,79);stroke-width:7px;"/>
    </g>
    <g transform="matrix(1,0,0,1,-79,166)">
        <path d="M330,-51.962L360,-51.962" style="fill:none;fill-rule:nonzero;stroke:rgb(144,209,194);stroke-width:1.5px;stroke-dasharray:1,1;"/>
    </g>
    <g transform="matrix(1,0,0,1,-79,166)">
        <path d="M345,-77.942L330,-51.962" style="fill:none;fill-rule:nonzero;stroke:rgb(79,201,79);stroke-width:7px;"/>
    </g>
    <g transform="matrix(1,0,0,1,-79,166)">
        <path d="M345,-77.942L360,-51.962" style="fill:none;fill-rule:nonzero;stroke:rgb(144,209,194);stroke-width:1.5px;stroke-dasharray:1,1;"/>
    </g>
    <g transform="matrix(1,0,0,1,-79,166)">
        <path d="M315,-77.942L345,-77.942" style="fill:none;fill-rule:nonzero;stroke:rgb(79,201,79);stroke-width:7px;"/>
    </g>
    <g transform="matrix(1,0,0,1,-79,166)">
        <path d="M315,-77.942L300,-103.923" style="fill:none;fill-rule:nonzero;stroke:rgb(144,209,194);stroke-width:1.5px;stroke-dasharray:1,1;"/>
    </g>
    <g transform="matrix(1,0,0,1,-79,166)">
        <path d="M300,-51.962L315,-77.942" style="fill:none;fill-rule:nonzero;stroke:rgb(79,201,79);stroke-width:7px;"/>
    </g>
    <g transform="matrix(1,0,0,1,-79,166)">
        <path d="M300,-51.962L330,-51.962" style="fill:none;fill-rule:nonzero;stroke:rgb(144,209,194);stroke-width:1.5px;stroke-dasharray:1,1;"/>
    </g>
    <g transform="matrix(1,0,0,1,-79,166)">
        <path d="M315,-25.981L300,-51.962" style="fill:none;fill-rule:nonzero;stroke:rgb(79,201,79);stroke-width:7px;"/>
    </g>
    <g transform="matrix(1,0,0,1,-79,166)">
        <path d="M315,-25.981L330,-51.962" style="fill:none;fill-rule:nonzero;stroke:rgb(144,209,194);stroke-width:1.5px;stroke-dasharray:1,1;"/>
    </g>
    <g transform="matrix(1,0,0,1,-79,166)">
        <path d="M315,-25.981L345,-25.981" style="fill:none;fill-rule:nonzero;stroke:rgb(144,209,194);stroke-width:1.5px;stroke-dasharray:1,1;"/>
    </g>
    <g transform="matrix(1,0,0,1,-79,166)">
        <path d="M285,-25.981L315,-25.981" style="fill:none;fill-rule:nonzero;stroke:rgb(79,201,79);stroke-width:7px;"/>
    </g>
    <g transform="matrix(1,0,0,1,-79,166)">
        <path d="M270,-51.962L285,-25.981" style="fill:none;fill-rule:nonzero;stroke:rgb(79,201,79);stroke-width:7px;"/>
    </g>
    <g transform="matrix(1,0,0,1,-79,166)">
        <path d="M270,-51.962L300,-51.962" style="fill:none;fill-rule:nonzero;stroke:rgb(144,209,194);stroke-width:1.5px;stroke-dasharray:1,1;"/>
    </g>
    <g transform="matrix(1,0,0,1,-79,166)">
        <path d="M285,-77.942L270,-51.962" style="fill:none;fill-rule:nonzero;stroke:rgb(79,201,79);stroke-width:7px;"/>
    </g>
    <g transform="matrix(1,0,0,1,-79,166)">
        <path d="M285,-77.942L315,-77.942" style="fill:none;fill-rule:nonzero;stroke:rgb(144,209,194);stroke-width:1.5px;stroke-dasharray:1,1;"/>
    </g>
    <g transform="matrix(1,0,0,1,-19.2422,166)">
        <path d="M285,-77.942L315,-77.942" style="fill:none;fill-rule:nonzero;stroke:rgb(144,209,194);stroke-width:1.5px;stroke-dasharray:1,1;"/>
    </g>
    <g transform="matrix(1,0,0,1,-79,166)">
        <path d="M285,-77.942L300,-51.962" style="fill:none;fill-rule:nonzero;stroke:rgb(144,209,194);stroke-width:1.5px;stroke-dasharray:1,1;"/>
    </g>
    <g transform="matrix(1,0,0,1,-79,166)">
        <path d="M255,-77.942L285,-77.942" style="fill:none;fill-rule:nonzero;stroke:rgb(79,201,79);stroke-width:5px;"/>
    </g>
    <g transform="matrix(1,0,0,1,-79,166)">
        <path d="M240,-51.962L255,-77.942" style="fill:none;fill-rule:nonzero;stroke:rgb(79,201,79);stroke-width:5px;"/>
    </g>
    <g transform="matrix(1,0,0,1,-79,166)">
        <path d="M255,-25.981L240,-51.962" style="fill:none;fill-rule:nonzero;stroke:rgb(79,201,79);stroke-width:7px;"/>
    </g>
    <g transform="matrix(1,0,0,1,-79,166)">
        <path d="M255,-25.981L270,-51.962" style="fill:none;fill-rule:nonzero;stroke:rgb(144,209,194);stroke-width:1.5px;stroke-dasharray:1,1;"/>
    </g>
    <g transform="matrix(1,0,0,1,-79,166)">
        <path d="M255,-25.981L285,-25.981" style="fill:none;fill-rule:nonzero;stroke:rgb(144,209,194);stroke-width:1.5px;stroke-dasharray:1,1;"/>
    </g>
    <g transform="matrix(1,0,0,1,-79,166)">
        <path d="M225,-25.981L255,-25.981" style="fill:none;fill-rule:nonzero;stroke:rgb(79,201,79);stroke-width:7px;"/>
    </g>
    <g transform="matrix(1,0,0,1,-79,166)">
        <path d="M210,-51.962L225,-25.981" style="fill:none;fill-rule:nonzero;stroke:rgb(79,201,79);stroke-width:7px;"/>
    </g>
    <g transform="matrix(1,0,0,1,-79,166)">
        <path d="M210,-51.962L240,-51.962" style="fill:none;fill-rule:nonzero;stroke:rgb(144,209,194);stroke-width:1.5px;stroke-dasharray:1,1;"/>
    </g>
    <g transform="matrix(1,0,0,1,-79,166)">
        <path d="M225,-77.942L210,-51.962" style="fill:none;fill-rule:nonzero;stroke:rgb(79,201,79);stroke-width:7px;"/>
    </g>
    <g transform="matrix(1,0,0,1,-79,166)">
        <path d="M225,-77.942L255,-77.942" style="fill:none;fill-rule:nonzero;stroke:rgb(144,209,194);stroke-width:1.5px;stroke-dasharray:1,1;"/>
    </g>
    <g transform="matrix(1,0,0,1,-79,166)">
        <path d="M225,-77.942L240,-51.962" style="fill:none;fill-rule:nonzero;stroke:rgb(144,209,194);stroke-width:1.5px;stroke-dasharray:1,1;"/>
    </g>
    <g transform="matrix(1,0,0,1,-138.683,166.601)">
        <path d="M225,-77.942L240,-51.962" style="fill:none;fill-rule:nonzero;stroke:rgb(144,209,194);stroke-width:1.5px;stroke-dasharray:1,1;"/>
    </g>
    <g transform="matrix(1,0,0,1,-79,166)">
        <path d="M195,-77.942L225,-77.942" style="fill:none;fill-rule:nonzero;stroke:rgb(79,201,79);stroke-width:7px;"/>
    </g>
    <g transform="matrix(1,0,0,1,-79,166)">
        <path d="M195,-77.942L210,-103.923" style="fill:none;fill-rule:nonzero;stroke:rgb(144,209,194);stroke-width:1.5px;stroke-dasharray:1,1;"/>
    </g>
    <g transform="matrix(1,0,0,1,-79,166)">
        <path d="M180,-51.962L195,-77.942" style="fill:none;fill-rule:nonzero;stroke:rgb(79,201,79);stroke-width:7px;"/>
    </g>
    <g transform="matrix(1,0,0,1,-79,166)">
        <path d="M180,-51.962L210,-51.962" style="fill:none;fill-rule:nonzero;stroke:rgb(144,209,194);stroke-width:1.5px;stroke-dasharray:1,1;"/>
    </g>
    <g transform="matrix(1,0,0,1,-79,166)">
        <path d="M195,-25.981L180,-51.962" style="fill:none;fill-rule:nonzero;stroke:rgb(79,201,79);stroke-width:7px;"/>
    </g>
    <g transform="matrix(1,0,0,1,-79,166)">
        <path d="M195,-25.981L210,-51.962" style="fill:none;fill-rule:nonzero;stroke:rgb(144,209,194);stroke-width:1.5px;stroke-dasharray:1,1;"/>
    </g>
    <g transform="matrix(1,0,0,1,-138.382,166)">
        <path d="M195,-25.981L210,-51.962" style="fill:none;fill-rule:nonzero;stroke:rgb(144,209,194);stroke-width:1.5px;stroke-dasharray:1,1;"/>
    </g>
    <g transform="matrix(1,0,0,1,-79,166)">
        <path d="M195,-25.981L225,-25.981" style="fill:none;fill-rule:nonzero;stroke:rgb(144,209,194);stroke-width:1.5px;stroke-dasharray:1,1;"/>
    </g>
    <g transform="matrix(1,0,0,1,-79,166)">
        <path d="M165,-25.981L195,-25.981" style="fill:none;fill-rule:nonzero;stroke:rgb(79,201,79);stroke-width:7px;"/>
    </g>
    <g transform="matrix(1,0,0,1,-79,166)">
        <path d="M150,-51.962L165,-25.981" style="fill:none;fill-rule:nonzero;stroke:rgb(79,201,79);stroke-width:7px;"/>
    </g>
    <g transform="matrix(1,0,0,1,-79,166)">
        <path d="M150,-51.962L180,-51.962" style="fill:none;fill-rule:nonzero;stroke:rgb(144,209,194);stroke-width:1.5px;stroke-dasharray:1,1;"/>
    </g>
    <g transform="matrix(1,0,0,1,-79,166)">
        <path d="M165,-77.942L150,-51.962" style="fill:none;fill-rule:nonzero;stroke:rgb(79,201,79);stroke-width:7px;"/>
    </g>
    <g transform="matrix(1,0,0,1,-79,166)">
        <path d="M165,-77.942L180,-103.923" style="fill:none;fill-rule:nonzero;stroke:rgb(144,209,194);stroke-width:1.5px;stroke-dasharray:1,1;"/>
    </g>
    <g transform="matrix(1,0,0,1,-79,166)">
        <path d="M165,-77.942L195,-77.942" style="fill:none;fill-rule:nonzero;stroke:rgb(144,209,194);stroke-width:1.5px;stroke-dasharray:1,1;"/>
    </g>
    <g transform="matrix(1,0,0,1,-79,166)">
        <path d="M165,-77.942L150,-103.923" style="fill:none;fill-rule:nonzero;stroke:rgb(144,209,194);stroke-width:1.5px;stroke-dasharray:1,1;"/>
    </g>
    <g transform="matrix(1,0,0,1,-79,166)">
        <path d="M135,-77.942L165,-77.942" style="fill:none;fill-rule:nonzero;stroke:rgb(79,201,79);stroke-width:7px;"/>
    </g>
    <g transform="matrix(1,0,0,1,-79,166)">
        <path d="M120,-51.962L135,-77.942" style="fill:none;fill-rule:nonzero;stroke:rgb(79,201,79);stroke-width:7px;"/>
    </g>
    <g transform="matrix(1,0,0,1,-79,166)">
        <path d="M120,-51.962L150,-51.962" style="fill:none;fill-rule:nonzero;stroke:rgb(144,209,194);stroke-width:1.5px;stroke-dasharray:1,1;"/>
    </g>
    <g transform="matrix(1,0,0,1,-79,166)">
        <path d="M135,-25.981L120,-51.962" style="fill:none;fill-rule:nonzero;stroke:rgb(79,201,79);stroke-width:7px;"/>
    </g>
    <g transform="matrix(1,0,0,1,-79,166)">
        <path d="M135,-25.981L165,-25.981" style="fill:none;fill-rule:nonzero;stroke:rgb(144,209,194);stroke-width:1.5px;stroke-dasharray:1,1;"/>
    </g>
    <g transform="matrix(1,0,0,1,-79,166)">
        <circle cx="270" cy="-51.962" r="10" style="fill:white;stroke:rgb(79,201,79);stroke-width:3px;"/>
    </g>
    <g transform="matrix(1,0,0,1,191,117.538)">
        <text x="-4.449px" y="0px" style="font-family:'ArialMT', 'Arial', sans-serif;font-size:8px;">14</text>
    </g>
    <g transform="matrix(1,0,0,1,-79,166)">
        <circle cx="300" cy="-103.923" r="10" style="fill:white;stroke:rgb(102,87,130);stroke-width:3px;"/>
    </g>
    <g transform="matrix(1,0,0,1,221,65.577)">
        <text x="-4.449px" y="0px" style="font-family:'ArialMT', 'Arial', sans-serif;font-size:8px;">79</text>
    </g>
    <g transform="matrix(1,0,0,1,-79,166)">
        <circle cx="360" cy="-51.962" r="10" style="fill:white;stroke:rgb(79,201,79);stroke-width:3px;"/>
    </g>
    <g transform="matrix(1,0,0,1,281,117.538)">
        <text x="-2.225px" y="0px" style="font-family:'ArialMT', 'Arial', sans-serif;font-size:8px;">5</text>
    </g>
    <g transform="matrix(1,0,0,1,-79,166)">
        <circle cx="390" cy="-103.923" r="10" style="fill:white;stroke:rgb(102,87,130);stroke-width:3px;"/>
    </g>
    <g transform="matrix(1,0,0,1,311,65.577)">
        <text x="-4.449px" y="0px" style="font-family:'ArialMT', 'Arial', sans-serif;font-size:8px;">90</text>
    </g>
    <g transform="matrix(1,0,0,1,-79,166)">
        <circle cx="255" cy="-25.981" r="10" style="fill:white;stroke:rgb(79,201,79);stroke-width:3px;"/>
    </g>
    <g transform="matrix(1,0,0,1,176,143.519)">
        <text x="-4.449px" y="0px" style="font-family:'ArialMT', 'Arial', sans-serif;font-size:8px;">18</text>
    </g>
    <g transform="matrix(1,0,0,1,-79,166)">
        <circle cx="210" cy="-51.962" r="10" style="fill:white;stroke:rgb(79,201,79);stroke-width:3px;"/>
    </g>
    <g transform="matrix(1,0,0,1,131,117.538)">
        <text x="-4.449px" y="0px" style="font-family:'ArialMT', 'Arial', sans-serif;font-size:8px;">20</text>
    </g>
    <g transform="matrix(1,0,0,1,-79,166)">
        <circle cx="165" cy="-77.942" r="10" style="fill:white;stroke:rgb(79,201,79);stroke-width:3px;"/>
    </g>
    <g transform="matrix(1,0,0,1,86,91.558)">
        <text x="-4.449px" y="0px" style="font-family:'ArialMT', 'Arial', sans-serif;font-size:8px;">27</text>
    </g>
    <g transform="matrix(1,0,0,1,-79,166)">
        <circle cx="135" cy="-25.981" r="10" style="fill:white;stroke:rgb(79,201,79);stroke-width:3px;"/>
    </g>
    <g transform="matrix(1,0,0,1,56,143.519)">
        <text x="-4.449px" y="0px" style="font-family:'ArialMT', 'Arial', sans-serif;font-size:8px;">30</text>
    </g>
    <g transform="matrix(1,0,0,1,-79,166)">
        <circle cx="150" cy="-103.923" r="10" style="fill:white;stroke:rgb(102,87,130);stroke-width:3px;"/>
    </g>
    <g transform="matrix(1,0,0,1,71,65.577)">
        <text x="-4.449px" y="0px" style="font-family:'ArialMT', 'Arial', sans-serif;font-size:8px;">66</text>
    </g>
    <g transform="matrix(1,0,0,1,-79,166)">
        <circle cx="465" cy="-25.981" r="10" style="fill:white;stroke:rgb(102,87,130);stroke-width:3px;"/>
    </g>
    <g transform="matrix(1,0,0,1,386,143.519)">
        <text x="-6.674px" y="0px" style="font-family:'ArialMT', 'Arial', sans-serif;font-size:8px;">127</text>
    </g>
    <g transform="matrix(1,0,0,1,-79,166)">
        <circle cx="225" cy="-77.942" r="10" style="fill:white;stroke:rgb(79,201,79);stroke-width:3px;"/>
    </g>
    <g transform="matrix(1,0,0,1,146,91.558)">
        <text x="-4.449px" y="0px" style="font-family:'ArialMT', 'Arial', sans-serif;font-size:8px;">21</text>
    </g>
    <g transform="matrix(1,0,0,1,-79,166)">
        <circle cx="150" cy="-51.962" r="10" style="fill:white;stroke:rgb(79,201,79);stroke-width:3px;"/>
    </g>
    <g transform="matrix(1,0,0,1,71,117.538)">
        <text x="-4.449px" y="0px" style="font-family:'ArialMT', 'Arial', sans-serif;font-size:8px;">26</text>
    </g>
    <g transform="matrix(1,0,0,1,-79,166)">
        <circle cx="240" cy="-103.923" r="10" style="fill:white;stroke:rgb(102,87,130);stroke-width:3px;"/>
    </g>
    <g transform="matrix(1,0,0,1,161,65.577)">
        <text x="-4.449px" y="0px" style="font-family:'ArialMT', 'Arial', sans-serif;font-size:8px;">77</text>
    </g>
    <g transform="matrix(1,0,0,1,-79,166)">
        <circle cx="375" cy="-77.942" r="10" style="fill:white;stroke:rgb(79,201,79);stroke-width:3px;"/>
    </g>
    <g transform="matrix(1,0,0,1,296,91.558)">
        <text x="-2.225px" y="0px" style="font-family:'ArialMT', 'Arial', sans-serif;font-size:8px;">4</text>
    </g>
    <g transform="matrix(1,0,0,1,-79,166)">
        <circle cx="180" cy="-51.962" r="10" style="fill:white;stroke:rgb(79,201,79);stroke-width:3px;"/>
    </g>
    <g transform="matrix(1,0,0,1,101,117.538)">
        <text x="-4.449px" y="0px" style="font-family:'ArialMT', 'Arial', sans-serif;font-size:8px;">23</text>
    </g>
    <g transform="matrix(1,0,0,1,-79,166)">
        <circle cx="465" cy="-77.942" r="10" style="fill:white;stroke:rgb(102,87,130);stroke-width:3px;"/>
    </g>
    <g transform="matrix(1,0,0,1,386,91.558)">
        <text x="-6.674px" y="0px" style="font-family:'ArialMT', 'Arial', sans-serif;font-size:8px;">129</text>
    </g>
    <g transform="matrix(1,0,0,1,-79,166)">
        <circle cx="345" cy="-25.981" r="10" style="fill:white;stroke:rgb(79,201,79);stroke-width:3px;"/>
    </g>
    <g transform="matrix(1,0,0,1,266,143.519)">
        <text x="-2.225px" y="0px" style="font-family:'ArialMT', 'Arial', sans-serif;font-size:8px;">7</text>
    </g>
    <g transform="matrix(1,0,0,1,-79,166)">
        <circle cx="300" cy="-51.962" r="10" style="fill:white;stroke:rgb(79,201,79);stroke-width:3px;"/>
    </g>
    <g transform="matrix(1,0,0,1,221,117.538)">
        <text x="-4.152px" y="0px" style="font-family:'ArialMT', 'Arial', sans-serif;font-size:8px;">1<tspan x="-0.297px " y="0px ">1</tspan></text>
    </g>
    <g transform="matrix(1,0,0,1,-79,166)">
        <circle cx="195" cy="-77.942" r="10" style="fill:white;stroke:rgb(79,201,79);stroke-width:3px;"/>
    </g>
    <g transform="matrix(1,0,0,1,116,91.558)">
        <text x="-4.449px" y="0px" style="font-family:'ArialMT', 'Arial', sans-serif;font-size:8px;">22</text>
    </g>
    <g transform="matrix(1,0,0,1,-79,166)">
        <circle cx="120" cy="-51.962" r="10" style="fill:white;stroke:rgb(79,201,79);stroke-width:3px;"/>
    </g>
    <g transform="matrix(1,0,0,1,41,117.538)">
        <text x="-4.449px" y="0px" style="font-family:'ArialMT', 'Arial', sans-serif;font-size:8px;">29</text>
    </g>
    <g transform="matrix(1,0,0,1,-79,166)">
        <circle cx="420" cy="-103.923" r="10" style="fill:white;stroke:rgb(102,87,130);stroke-width:3px;"/>
    </g>
    <g transform="matrix(1,0,0,1,341,65.577)">
        <text x="-4.449px" y="0px" style="font-family:'ArialMT', 'Arial', sans-serif;font-size:8px;">91</text>
    </g>
    <g transform="matrix(1,0,0,1,-79,166)">
        <circle cx="435" cy="-77.942" r="10" style="fill:white;stroke:rgb(102,87,130);stroke-width:3px;"/>
    </g>
    <g transform="matrix(1,0,0,1,356,91.558)">
        <text x="-6.674px" y="0px" style="font-family:'ArialMT', 'Arial', sans-serif;font-size:8px;">130</text>
    </g>
    <g transform="matrix(1,0,0,1,-79,166)">
        <circle cx="330" cy="-51.962" r="10" style="fill:white;stroke:rgb(79,201,79);stroke-width:3px;"/>
    </g>
    <g transform="matrix(1,0,0,1,251,117.538)">
        <text x="-2.225px" y="0px" style="font-family:'ArialMT', 'Arial', sans-serif;font-size:8px;">8</text>
    </g>
    <g transform="matrix(1,0,0,1,-79,166)">
        <circle cx="315" cy="-77.942" r="10" style="fill:white;stroke:rgb(79,201,79);stroke-width:3px;"/>
    </g>
    <g transform="matrix(1,0,0,1,236,91.558)">
        <text x="-4.449px" y="0px" style="font-family:'ArialMT', 'Arial', sans-serif;font-size:8px;">10</text>
    </g>
    <g transform="matrix(1,0,0,1,-79,166)">
        <circle cx="195" cy="-25.981" r="10" style="fill:white;stroke:rgb(79,201,79);stroke-width:3px;"/>
    </g>
    <g transform="matrix(1,0,0,1,116,143.519)">
        <text x="-4.449px" y="0px" style="font-family:'ArialMT', 'Arial', sans-serif;font-size:8px;">24</text>
    </g>
    <g transform="matrix(1,0,0,1,-79,166)">
        <circle cx="450" cy="-51.962" r="10" style="fill:white;stroke:rgb(102,87,130);stroke-width:3px;"/>
    </g>
    <g transform="matrix(1,0,0,1,371,117.538)">
        <text x="-6.674px" y="0px" style="font-family:'ArialMT', 'Arial', sans-serif;font-size:8px;">128</text>
    </g>
    <g transform="matrix(1,0,0,1,-79,166)">
        <circle cx="285" cy="-25.981" r="10" style="fill:white;stroke:rgb(79,201,79);stroke-width:3px;"/>
    </g>
    <g transform="matrix(1,0,0,1,206,143.519)">
        <text x="-4.449px" y="0px" style="font-family:'ArialMT', 'Arial', sans-serif;font-size:8px;">13</text>
    </g>
    <g transform="matrix(1,0,0,1,-79,166)">
        <circle cx="255" cy="-77.942" r="10" style="fill:white;stroke:rgb(79,201,79);stroke-width:3px;"/>
    </g>
    <g transform="matrix(1,0,0,1,176,91.558)">
        <text x="-4.449px" y="0px" style="font-family:'ArialMT', 'Arial', sans-serif;font-size:8px;">16</text>
    </g>
    <g transform="matrix(1,0,0,1,-79,166)">
        <circle cx="330" cy="-103.923" r="10" style="fill:white;stroke:rgb(102,87,130);stroke-width:3px;"/>
    </g>
    <g transform="matrix(1,0,0,1,251,65.577)">
        <text x="-4.449px" y="0px" style="font-family:'ArialMT', 'Arial', sans-serif;font-size:8px;">88</text>
    </g>
    <g transform="matrix(1,0,0,1,-79,166)">
        <circle cx="360" cy="-103.923" r="10" style="fill:white;stroke:rgb(102,87,130);stroke-width:3px;"/>
    </g>
    <g transform="matrix(1,0,0,1,281,65.577)">
        <text x="-4.449px" y="0px" style="font-family:'ArialMT', 'Arial', sans-serif;font-size:8px;">89</text>
    </g>
    <g transform="matrix(1,0,0,1,-79,166)">
        <circle cx="225" cy="-25.981" r="10" style="fill:white;stroke:rgb(79,201,79);stroke-width:3px;"/>
    </g>
    <g transform="matrix(1,0,0,1,146,143.519)">
        <text x="-4.449px" y="0px" style="font-family:'ArialMT', 'Arial', sans-serif;font-size:8px;">19</text>
    </g>
    <g transform="matrix(1,0,0,1,-79,166)">
        <circle cx="135" cy="-77.942" r="10" style="fill:white;stroke:rgb(79,201,79);stroke-width:3px;"/>
    </g>
    <g transform="matrix(1,0,0,1,56,91.558)">
        <text x="-4.449px" y="0px" style="font-family:'ArialMT', 'Arial', sans-serif;font-size:8px;">28</text>
    </g>
    <g transform="matrix(1,0,0,1,-79,166)">
        <circle cx="120" cy="-103.923" r="10" style="fill:white;stroke:rgb(102,87,130);stroke-width:3px;"/>
    </g>
    <g transform="matrix(1,0,0,1,41,65.577)">
        <text x="-4.449px" y="0px" style="font-family:'ArialMT', 'Arial', sans-serif;font-size:8px;">65</text>
    </g>
    <g transform="matrix(1,0,0,1,-79,166)">
        <circle cx="210" cy="-103.923" r="10" style="fill:white;stroke:rgb(102,87,130);stroke-width:3px;"/>
    </g>
    <g transform="matrix(1,0,0,1,131,65.577)">
        <text x="-4.449px" y="0px" style="font-family:'ArialMT', 'Arial', sans-serif;font-size:8px;">76</text>
    </g>
    <g transform="matrix(1,0,0,1,-79,166)">
        <circle cx="405" cy="-77.942" r="10" style="fill:white;stroke:rgb(79,201,79);stroke-width:3px;"/>
    </g>
    <g transform="matrix(1,0,0,1,326,91.558)">
        <text x="-2.225px" y="0px" style="font-family:'ArialMT', 'Arial', sans-serif;font-size:8px;">3</text>
    </g>
    <g transform="matrix(1,0,0,1,-79,166)">
        <circle cx="165" cy="-25.981" r="10" style="fill:white;stroke:rgb(79,201,79);stroke-width:3px;"/>
    </g>
    <g transform="matrix(1,0,0,1,86,143.519)">
        <text x="-4.449px" y="0px" style="font-family:'ArialMT', 'Arial', sans-serif;font-size:8px;">25</text>
    </g>
    <g transform="matrix(1,0,0,1,-79,166)">
        <circle cx="405" cy="-25.981" r="10" style="fill:white;stroke:rgb(79,201,79);stroke-width:3px;"/>
    </g>
    <g transform="matrix(1,0,0,1,326,143.519)">
        <text x="-2.225px" y="0px" style="font-family:'ArialMT', 'Arial', sans-serif;font-size:8px;">1</text>
    </g>
    <g transform="matrix(1,0,0,1,-79,166)">
        <circle cx="345" cy="-77.942" r="10" style="fill:white;stroke:rgb(79,201,79);stroke-width:3px;"/>
    </g>
    <g transform="matrix(1,0,0,1,266,91.558)">
        <text x="-2.225px" y="0px" style="font-family:'ArialMT', 'Arial', sans-serif;font-size:8px;">9</text>
    </g>
    <g transform="matrix(1,0,0,1,-79,166)">
        <circle cx="285" cy="-77.942" r="10" style="fill:white;stroke:rgb(79,201,79);stroke-width:3px;"/>
    </g>
    <g transform="matrix(1,0,0,1,206,91.558)">
        <text x="-4.449px" y="0px" style="font-family:'ArialMT', 'Arial', sans-serif;font-size:8px;">15</text>
    </g>
    <g transform="matrix(1,0,0,1,-79,166)">
        <circle cx="240" cy="-51.962" r="10" style="fill:white;stroke:rgb(79,201,79);stroke-width:3px;"/>
    </g>
    <g transform="matrix(1,0,0,1,161,117.538)">
        <text x="-4.449px" y="0px" style="font-family:'ArialMT', 'Arial', sans-serif;font-size:8px;">17</text>
    </g>
    <g transform="matrix(1,0,0,1,-79,166)">
        <circle cx="270" cy="-103.923" r="10" style="fill:white;stroke:rgb(102,87,130);stroke-width:3px;"/>
    </g>
    <g transform="matrix(1,0,0,1,191,65.577)">
        <text x="-4.449px" y="0px" style="font-family:'ArialMT', 'Arial', sans-serif;font-size:8px;">78</text>
    </g>
    <g transform="matrix(1,0,0,1,-79,166)">
        <circle cx="390" cy="-51.962" r="10" style="fill:white;stroke:rgb(79,201,79);stroke-width:3px;"/>
    </g>
    <g transform="matrix(1,0,0,1,311,117.538)">
        <text x="-2.225px" y="0px" style="font-family:'ArialMT', 'Arial', sans-serif;font-size:8px;">2</text>
    </g>
    <g transform="matrix(1,0,0,1,-79,166)">
        <circle cx="375" cy="-25.981" r="10" style="fill:white;stroke:rgb(79,201,79);stroke-width:3px;"/>
    </g>
    <g transform="matrix(1,0,0,1,296,143.519)">
        <text x="-2.225px" y="0px" style="font-family:'ArialMT', 'Arial', sans-serif;font-size:8px;">6</text>
    </g>
    <g transform="matrix(1,0,0,1,-79,166)">
        <circle cx="180" cy="-103.923" r="10" style="fill:white;stroke:rgb(102,87,130);stroke-width:3px;"/>
    </g>
    <g transform="matrix(1,0,0,1,101,65.577)">
        <text x="-4.449px" y="0px" style="font-family:'ArialMT', 'Arial', sans-serif;font-size:8px;">67</text>
    </g>
    <g transform="matrix(1,0,0,1,-79,166)">
        <circle cx="435" cy="-25.981" r="10" style="fill:white;stroke:rgb(102,87,130);stroke-width:3px;"/>
    </g>
    <g transform="matrix(1,0,0,1,356,143.519)">
        <text x="-6.674px" y="0px" style="font-family:'ArialMT', 'Arial', sans-serif;font-size:8px;">132</text>
    </g>
    <g transform="matrix(1,0,0,1,-79,166)">
        <circle cx="450" cy="-103.923" r="10" style="fill:white;stroke:rgb(102,87,130);stroke-width:3px;"/>
    </g>
    <g transform="matrix(1,0,0,1,371,65.577)">
        <text x="-4.449px" y="0px" style="font-family:'ArialMT', 'Arial', sans-serif;font-size:8px;">96</text>
    </g>
    <g transform="matrix(1,0,0,1,-79,166)">
        <circle cx="315" cy="-25.981" r="10" style="fill:white;stroke:rgb(79,201,79);stroke-width:3px;"/>
    </g>
    <g transform="matrix(1,0,0,1,236,143.519)">
        <text x="-4.449px" y="0px" style="font-family:'ArialMT', 'Arial', sans-serif;font-size:8px;">12</text>
    </g>
    <g transform="matrix(1,0,0,1,-79,166)">
        <circle cx="420" cy="-51.962" r="10" style="fill:white;stroke:rgb(102,87,130);stroke-width:3px;"/>
    </g>
    <g transform="matrix(1,0,0,1,341,117.538)">
        <text x="-6.674px" y="0px" style="font-family:'ArialMT', 'Arial', sans-serif;font-size:8px;">131</text>
    </g>
    <g transform="matrix(1,0,0,1,-794.33,47.3411)">
        <path d="M882.367,8.734L882.367,-2.234L1181.47,-2.234L1181.47,7.737" style="fill:none;fill-rule:nonzero;stroke:black;stroke-width:1px;"/>
    </g>
    <g transform="matrix(1,0,0,1,-44.2753,-3.52167)">
        <path d="M86.008,150.871L86.008,162.164L385.105,162.164L385.105,151.897" style="fill:none;fill-rule:nonzero;stroke:black;stroke-width:1.01px;"/>
    </g>
    <g transform="matrix(1,0,0,1,105.919,187.676)">
        <text x="0px" y="0px" style="font-family:'CambriaMath', 'Cambria Math', serif;font-size:40px;">None (F</text>
        <g transform="matrix(1,0,0,1,136.387,0)">
            <text x="0px" y="0px" style="font-family:'CambriaMath', 'Cambria Math', serif;font-size:40px;">nb)</text>
        </g>
    </g>
    <g transform="matrix(1,0,0,1,143.165,28.8097)">
        <g id="text3967">
            <text x="0px" y="0px" style="font-family:'CambriaMath', 'Cambria Math', serif;font-size:40px;">None (Hn)</text>
        </g>
    </g>
</svg>
